<svg width="2374" height="3880" viewBox="0 0 2374 3880" fill="none" xmlns="http://www.w3.org/2000/svg">
<path d="M1304.45 1577.55L1300.44 1575.51C1304.45 1577.55 1304.44 1577.56 1304.43 1577.58C1304.42 1577.6 1304.41 1577.63 1304.39 1577.67C1304.35 1577.75 1304.29 1577.86 1304.21 1578.02C1304.05 1578.34 1303.81 1578.81 1303.49 1579.44C1302.85 1580.7 1301.91 1582.58 1300.67 1585.05C1298.18 1590 1294.52 1597.34 1289.82 1606.9C1280.41 1626.02 1266.82 1654.01 1250.1 1689.45C1216.67 1760.35 1170.75 1861.08 1120.8 1980.42C1020.88 2219.15 904.889 2532.18 840.401 2829.73C808.157 2978.5 788.822 3123.26 790.757 3252.85C792.692 3382.48 815.908 3496.57 868.435 3584.29C920.857 3671.84 1002.66 3733.46 1122.62 3758.02C1242.77 3782.63 1401.38 3770.09 1607.15 3708.69C1698.27 3681.5 1759.94 3640.97 1798.47 3591.19C1836.98 3541.44 1852.73 3482.03 1851.25 3416.42C1848.28 3284.88 1776.07 3129.18 1680.4 2979.55C1584.84 2830.1 1466.33 2687.39 1371.66 2582.01C1324.33 2529.34 1282.99 2486.01 1253.48 2455.85C1238.72 2440.78 1226.93 2429 1218.82 2420.99C1214.77 2416.98 1211.64 2413.92 1209.53 2411.86C1208.47 2410.83 1207.67 2410.05 1207.13 2409.53C1206.86 2409.27 1206.66 2409.07 1206.52 2408.94C1206.46 2408.88 1206.41 2408.83 1206.37 2408.8C1206.36 2408.78 1206.34 2408.77 1206.34 2408.76C1206.33 2408.76 1206.33 2408.75 1209.44 2405.51C1212.56 2402.26 1212.56 2402.27 1212.57 2402.28C1212.58 2402.28 1212.6 2402.3 1212.61 2402.31C1212.65 2402.35 1212.7 2402.4 1212.77 2402.47C1212.91 2402.6 1213.12 2402.8 1213.39 2403.06C1213.93 2403.59 1214.74 2404.38 1215.81 2405.41C1217.94 2407.49 1221.08 2410.56 1225.15 2414.58C1233.29 2422.63 1245.12 2434.44 1259.91 2449.56C1289.49 2479.79 1330.93 2523.21 1378.35 2576C1473.18 2681.56 1592.05 2824.67 1687.98 2974.71C1783.81 3124.58 1857.22 3282.06 1860.25 3416.21C1861.77 3483.44 1845.61 3545 1805.59 3596.7C1765.59 3648.36 1702.1 3689.75 1609.72 3717.32C1403.21 3778.93 1242.98 3791.86 1120.81 3766.84C998.454 3741.78 914.469 3678.69 860.713 3588.91C807.06 3499.31 783.705 3383.45 781.757 3252.99C779.809 3122.48 799.278 2976.99 831.606 2827.82C896.264 2529.49 1012.49 2215.88 1112.5 1976.95C1162.51 1857.46 1208.49 1756.6 1241.96 1685.61C1258.7 1650.12 1272.31 1622.09 1281.74 1602.93C1286.04 1594.21 1289.46 1587.32 1291.92 1582.41L425.495 1811L423.2 1802.29L1309.02 1568.59L1304.45 1577.55Z" fill="black"/>
<path d="M1340.55 1900.1H1333.46V1877.86H1317.98L1303.27 1900.1H1294.77L1310.57 1876.88C1306.07 1876.08 1302.43 1874.3 1299.67 1871.54C1296.91 1868.71 1295.53 1864.93 1295.53 1860.2C1295.53 1856.5 1296.15 1853.52 1297.38 1851.27C1298.62 1849.01 1300.29 1847.2 1302.4 1845.82C1304.43 1844.51 1306.72 1843.67 1309.26 1843.31C1311.88 1842.87 1314.71 1842.65 1317.76 1842.65H1340.55V1900.1ZM1333.46 1848.65H1319.07C1316.75 1848.65 1314.53 1848.76 1312.42 1848.98C1310.32 1849.19 1308.61 1849.7 1307.3 1850.5C1306.07 1851.3 1304.98 1852.46 1304.03 1853.99C1303.16 1855.44 1302.72 1857.33 1302.72 1859.66C1302.72 1861.69 1303.05 1863.47 1303.7 1865C1304.43 1866.45 1305.37 1867.62 1306.54 1868.49C1307.63 1869.29 1308.79 1869.94 1310.03 1870.45C1311.33 1870.89 1312.68 1871.21 1314.06 1871.43C1315.51 1871.65 1316.93 1871.79 1318.31 1871.87C1319.69 1871.87 1321.03 1871.87 1322.34 1871.87H1333.46V1848.65Z" fill="black"/>
<path d="M1262.32 1900.75C1257.82 1900.75 1253.89 1900.02 1250.55 1898.57C1247.21 1897.12 1244.41 1895.08 1242.16 1892.47C1239.9 1889.85 1238.2 1886.76 1237.03 1883.2C1235.94 1879.64 1235.4 1875.75 1235.4 1871.54C1235.4 1867.18 1235.98 1863.22 1237.14 1859.66C1238.31 1856.02 1240.05 1852.9 1242.37 1850.28C1244.7 1847.67 1247.57 1845.63 1250.99 1844.18C1254.4 1842.73 1258.36 1842 1262.87 1842C1268.1 1842 1272.68 1843.27 1276.6 1845.82C1280.6 1848.36 1283.29 1852.25 1284.67 1857.48H1277.36C1276.35 1854.28 1274.42 1851.92 1271.59 1850.39C1268.83 1848.87 1265.77 1848.1 1262.43 1848.1C1259.02 1848.1 1256.04 1848.72 1253.49 1849.96C1251.02 1851.19 1248.95 1852.9 1247.28 1855.08C1245.68 1857.19 1244.48 1859.66 1243.68 1862.49C1242.88 1865.33 1242.48 1868.34 1242.48 1871.54C1242.48 1874.66 1242.88 1877.64 1243.68 1880.48C1244.48 1883.24 1245.68 1885.67 1247.28 1887.78C1248.95 1889.89 1251.06 1891.56 1253.6 1892.79C1256.22 1894.03 1259.27 1894.65 1262.76 1894.65C1266.25 1894.65 1269.37 1893.99 1272.13 1892.69C1274.89 1891.38 1276.89 1888.94 1278.13 1885.38H1285.54C1284.74 1888.07 1283.58 1890.4 1282.05 1892.36C1280.52 1894.25 1278.71 1895.85 1276.6 1897.15C1274.57 1898.39 1272.31 1899.3 1269.84 1899.88C1267.37 1900.46 1264.86 1900.75 1262.32 1900.75Z" fill="black"/>
<path d="M1228.45 1842.65V1848.65H1207.85V1900.1H1200.66V1848.65H1180.05V1842.65H1228.45Z" fill="black"/>
<path d="M1128.58 1873.72C1128.73 1876.77 1129.24 1879.57 1130.11 1882.11C1131.06 1884.66 1132.36 1886.87 1134.03 1888.76C1135.71 1890.58 1137.74 1892.03 1140.14 1893.12C1142.61 1894.14 1145.48 1894.65 1148.75 1894.65C1150.28 1894.65 1151.8 1894.5 1153.33 1894.21C1154.93 1893.92 1156.42 1893.48 1157.8 1892.9C1159.25 1892.25 1160.56 1891.41 1161.72 1890.4C1162.88 1889.38 1163.79 1888.11 1164.45 1886.58H1171.97C1171.17 1889.12 1169.93 1891.3 1168.26 1893.12C1166.66 1894.94 1164.81 1896.43 1162.7 1897.59C1160.59 1898.68 1158.31 1899.48 1155.83 1899.99C1153.36 1900.5 1150.89 1900.75 1148.42 1900.75C1143.92 1900.75 1139.96 1900.02 1136.54 1898.57C1133.2 1897.12 1130.4 1895.12 1128.15 1892.58C1125.9 1889.96 1124.22 1886.87 1123.13 1883.31C1122.04 1879.68 1121.5 1875.72 1121.5 1871.43C1121.5 1867.07 1122.08 1863.07 1123.24 1859.44C1124.41 1855.81 1126.11 1852.72 1128.37 1850.18C1130.69 1847.56 1133.53 1845.56 1136.87 1844.18C1140.28 1842.73 1144.17 1842 1148.53 1842C1153.11 1842 1156.96 1842.91 1160.09 1844.73C1163.28 1846.54 1165.86 1848.94 1167.82 1851.92C1169.79 1854.83 1171.17 1858.2 1171.97 1862.06C1172.84 1865.83 1173.2 1869.72 1173.06 1873.72H1128.58ZM1165.75 1867.72C1165.68 1865.11 1165.25 1862.6 1164.45 1860.2C1163.72 1857.81 1162.59 1855.73 1161.07 1853.99C1159.61 1852.17 1157.76 1850.76 1155.51 1849.74C1153.26 1848.65 1150.64 1848.1 1147.66 1848.1C1144.68 1848.1 1142.03 1848.65 1139.7 1849.74C1137.45 1850.83 1135.52 1852.28 1133.93 1854.1C1132.33 1855.92 1131.09 1858.02 1130.22 1860.42C1129.35 1862.75 1128.84 1865.18 1128.69 1867.72H1165.75Z" fill="black"/>
<path d="M1105.71 1842.65H1114L1094.81 1897.05C1094.23 1898.72 1093.5 1900.64 1092.63 1902.82C1091.76 1905 1090.78 1907.18 1089.69 1909.36C1088.67 1911.54 1087.55 1913.61 1086.31 1915.58C1085.15 1917.54 1083.95 1919.1 1082.71 1920.26C1080.39 1922.59 1077.88 1924.08 1075.19 1924.73C1072.58 1925.39 1069.42 1925.71 1065.71 1925.71V1918.85C1067.02 1918.85 1068.25 1918.81 1069.42 1918.74C1070.58 1918.66 1071.63 1918.45 1072.58 1918.08C1074.18 1917.57 1075.56 1916.77 1076.72 1915.68C1077.95 1914.67 1079.04 1913.5 1079.99 1912.2C1080.93 1910.89 1081.77 1909.47 1082.5 1907.95C1083.22 1906.49 1083.88 1905.04 1084.46 1903.59L1058.52 1842.65H1067.13L1088.6 1894.43L1105.71 1842.65Z" fill="black"/>
<path d="M1001.38 1900.1V1842.65H1008.57V1868.92H1041.05V1842.65H1048.25V1900.1H1041.05V1874.92H1008.57V1900.1H1001.38Z" fill="black"/>
<path d="M985.643 1842.65V1900.1H978.449V1848.65H953.597C953.525 1850.68 953.452 1852.75 953.379 1854.86L952.834 1866.96C952.762 1869 952.689 1871.07 952.616 1873.17C952.471 1875.06 952.289 1877.06 952.071 1879.17C951.926 1881.28 951.635 1883.38 951.199 1885.49C950.763 1887.53 950.146 1889.49 949.346 1891.38C948.547 1893.27 947.457 1894.9 946.076 1896.28C944.332 1898.03 942.516 1899.19 940.626 1899.77C938.737 1900.28 936.593 1900.53 934.195 1900.53V1893.78C936.375 1893.63 938.156 1893.01 939.536 1891.92C940.99 1890.76 942.116 1889.23 942.915 1887.34C943.86 1885.02 944.478 1882.48 944.768 1879.71C945.132 1876.88 945.386 1874.48 945.531 1872.52C945.895 1867.51 946.113 1862.53 946.185 1857.59C946.331 1852.65 946.476 1847.67 946.621 1842.65H985.643Z" fill="black"/>
<path d="M899.243 1842C903.748 1842 907.672 1842.73 911.015 1844.18C914.43 1845.63 917.264 1847.67 919.517 1850.28C921.842 1852.9 923.586 1856.02 924.749 1859.66C925.911 1863.22 926.493 1867.14 926.493 1871.43C926.493 1875.72 925.911 1879.68 924.749 1883.31C923.586 1886.87 921.842 1889.96 919.517 1892.58C917.264 1895.12 914.43 1897.12 911.015 1898.57C907.672 1900.02 903.748 1900.75 899.243 1900.75C894.737 1900.75 890.777 1900.02 887.362 1898.57C884.019 1897.12 881.185 1895.12 878.86 1892.58C876.607 1889.96 874.899 1886.87 873.737 1883.31C872.647 1879.68 872.102 1875.72 872.102 1871.43C872.102 1867.14 872.647 1863.22 873.737 1859.66C874.899 1856.02 876.607 1852.9 878.86 1850.28C881.185 1847.67 884.019 1845.63 887.362 1844.18C890.777 1842.73 894.737 1842 899.243 1842ZM899.243 1894.65C902.731 1894.65 905.746 1894.07 908.29 1892.9C910.833 1891.67 912.904 1890 914.503 1887.89C916.174 1885.78 917.373 1883.31 918.1 1880.48C918.899 1877.64 919.299 1874.63 919.299 1871.43C919.299 1868.23 918.899 1865.22 918.1 1862.38C917.373 1859.55 916.174 1857.08 914.503 1854.97C912.904 1852.86 910.833 1851.19 908.29 1849.96C905.746 1848.72 902.731 1848.1 899.243 1848.1C895.755 1848.1 892.739 1848.72 890.196 1849.96C887.652 1851.19 885.545 1852.86 883.874 1854.97C882.275 1857.08 881.076 1859.55 880.277 1862.38C879.55 1865.22 879.187 1868.23 879.187 1871.43C879.187 1874.63 879.55 1877.64 880.277 1880.48C881.076 1883.31 882.275 1885.78 883.874 1887.89C885.545 1890 887.652 1891.67 890.196 1892.9C892.739 1894.07 895.755 1894.65 899.243 1894.65Z" fill="black"/>
<path d="M814.352 1842.65H836.37C838.55 1842.65 840.839 1842.8 843.237 1843.09C845.707 1843.38 847.924 1844 849.886 1844.94C851.92 1845.89 853.592 1847.27 854.9 1849.09C856.28 1850.83 857.007 1853.19 857.08 1856.17C857.152 1858.93 856.535 1861.47 855.227 1863.8C853.991 1866.13 851.993 1867.98 849.232 1869.36C852.72 1870.09 855.481 1871.61 857.516 1873.94C859.55 1876.19 860.568 1879.39 860.568 1883.53C860.568 1886.73 859.914 1889.45 858.606 1891.7C857.37 1893.88 855.699 1895.63 853.592 1896.94C851.848 1898.1 849.813 1898.93 847.488 1899.44C845.162 1899.88 842.801 1900.1 840.403 1900.1H814.352V1842.65ZM821.546 1848.65V1867.72H836.152C837.605 1867.72 839.313 1867.58 841.275 1867.29C843.237 1866.92 844.908 1866.27 846.289 1865.33C847.451 1864.6 848.396 1863.65 849.123 1862.49C849.849 1861.26 850.213 1859.73 850.213 1857.91C850.213 1855.88 849.777 1854.24 848.905 1853.01C848.105 1851.77 847.015 1850.83 845.635 1850.18C844.254 1849.52 842.728 1849.12 841.057 1848.98C839.385 1848.76 837.714 1848.65 836.043 1848.65H821.546ZM821.546 1894.1H838.55C840.221 1894.1 841.929 1893.99 843.673 1893.78C845.417 1893.48 846.979 1893.01 848.36 1892.36C849.813 1891.63 851.012 1890.65 851.957 1889.42C852.901 1888.11 853.374 1886.4 853.374 1884.29C853.374 1881.82 852.865 1879.9 851.848 1878.52C850.903 1877.13 849.631 1876.08 848.033 1875.35C846.434 1874.63 844.654 1874.19 842.692 1874.05C840.802 1873.83 838.913 1873.72 837.024 1873.72H821.546V1894.1Z" fill="black"/>
<path d="M744.258 1842C748.764 1842 752.688 1842.73 756.03 1844.18C759.446 1845.63 762.28 1847.67 764.532 1850.28C766.858 1852.9 768.602 1856.02 769.764 1859.66C770.927 1863.22 771.508 1867.14 771.508 1871.43C771.508 1875.72 770.927 1879.68 769.764 1883.31C768.602 1886.87 766.858 1889.96 764.532 1892.58C762.28 1895.12 759.446 1897.12 756.03 1898.57C752.688 1900.02 748.764 1900.75 744.258 1900.75C739.753 1900.75 735.793 1900.02 732.377 1898.57C729.035 1897.12 726.201 1895.12 723.875 1892.58C721.623 1889.96 719.915 1886.87 718.752 1883.31C717.662 1879.68 717.117 1875.72 717.117 1871.43C717.117 1867.14 717.662 1863.22 718.752 1859.66C719.915 1856.02 721.623 1852.9 723.875 1850.28C726.201 1847.67 729.035 1845.63 732.377 1844.18C735.793 1842.73 739.753 1842 744.258 1842ZM744.258 1894.65C747.746 1894.65 750.762 1894.07 753.305 1892.9C755.849 1891.67 757.92 1890 759.518 1887.89C761.19 1885.78 762.389 1883.31 763.115 1880.48C763.915 1877.64 764.314 1874.63 764.314 1871.43C764.314 1868.23 763.915 1865.22 763.115 1862.38C762.389 1859.55 761.19 1857.08 759.518 1854.97C757.92 1852.86 755.849 1851.19 753.305 1849.96C750.762 1848.72 747.746 1848.1 744.258 1848.1C740.77 1848.1 737.755 1848.72 735.211 1849.96C732.668 1851.19 730.561 1852.86 728.889 1854.97C727.291 1857.08 726.092 1859.55 725.292 1862.38C724.566 1865.22 724.202 1868.23 724.202 1871.43C724.202 1874.63 724.566 1877.64 725.292 1880.48C726.092 1883.31 727.291 1885.78 728.889 1887.89C730.561 1890 732.668 1891.67 735.211 1892.9C737.755 1894.07 740.77 1894.65 744.258 1894.65Z" fill="black"/>
<path d="M703.557 1842.65V1900.1H696.363V1848.65H671.511C671.439 1850.68 671.366 1852.75 671.293 1854.86L670.748 1866.96C670.676 1869 670.603 1871.07 670.53 1873.17C670.385 1875.06 670.203 1877.06 669.985 1879.17C669.84 1881.28 669.549 1883.38 669.113 1885.49C668.677 1887.53 668.06 1889.49 667.26 1891.38C666.461 1893.27 665.371 1894.9 663.99 1896.28C662.246 1898.03 660.43 1899.19 658.54 1899.77C656.651 1900.28 654.507 1900.53 652.109 1900.53V1893.78C654.289 1893.63 656.07 1893.01 657.45 1891.92C658.904 1890.76 660.03 1889.23 660.829 1887.34C661.774 1885.02 662.392 1882.48 662.682 1879.71C663.046 1876.88 663.3 1874.48 663.445 1872.52C663.809 1867.51 664.027 1862.53 664.099 1857.59C664.245 1852.65 664.39 1847.67 664.535 1842.65H703.557Z" fill="black"/>
<path d="M599.874 1873.72C600.019 1876.77 600.528 1879.57 601.4 1882.11C602.345 1884.66 603.653 1886.87 605.324 1888.76C606.995 1890.58 609.03 1892.03 611.428 1893.12C613.899 1894.14 616.769 1894.65 620.039 1894.65C621.565 1894.65 623.091 1894.5 624.617 1894.21C626.216 1893.92 627.705 1893.48 629.086 1892.9C630.539 1892.25 631.847 1891.41 633.01 1890.4C634.173 1889.38 635.081 1888.11 635.735 1886.58H643.256C642.457 1889.12 641.221 1891.3 639.55 1893.12C637.951 1894.94 636.098 1896.43 633.991 1897.59C631.884 1898.68 629.595 1899.48 627.124 1899.99C624.653 1900.5 622.183 1900.75 619.712 1900.75C615.207 1900.75 611.246 1900.02 607.831 1898.57C604.488 1897.12 601.691 1895.12 599.438 1892.58C597.185 1889.96 595.514 1886.87 594.424 1883.31C593.334 1879.68 592.789 1875.72 592.789 1871.43C592.789 1867.07 593.37 1863.07 594.533 1859.44C595.696 1855.81 597.403 1852.72 599.656 1850.18C601.981 1847.56 604.815 1845.56 608.158 1844.18C611.573 1842.73 615.461 1842 619.821 1842C624.399 1842 628.25 1842.91 631.375 1844.73C634.572 1846.54 637.152 1848.94 639.114 1851.92C641.076 1854.83 642.457 1858.2 643.256 1862.06C644.128 1865.83 644.491 1869.72 644.346 1873.72H599.874ZM637.043 1867.72C636.97 1865.11 636.534 1862.6 635.735 1860.2C635.008 1857.81 633.882 1855.73 632.356 1853.99C630.903 1852.17 629.05 1850.76 626.797 1849.74C624.544 1848.65 621.928 1848.1 618.949 1848.1C615.97 1848.1 613.317 1848.65 610.992 1849.74C608.739 1850.83 606.814 1852.28 605.215 1854.1C603.616 1855.92 602.381 1858.02 601.509 1860.42C600.637 1862.75 600.128 1865.18 599.983 1867.72H637.043Z" fill="black"/>
<path d="M585.834 1842.65V1848.65H565.233V1900.1H558.038V1848.65H537.438V1842.65H585.834Z" fill="black"/>
<path d="M459.438 1810.5C459.438 1827.9 445.334 1842 427.938 1842C410.541 1842 396.438 1827.9 396.438 1810.5C396.438 1793.1 410.541 1779 427.938 1779C445.334 1779 459.438 1793.1 459.438 1810.5Z" fill="black"/>
<path d="M827.223 2235.19H800.759L831.924 2150.56C841.148 2125.84 854 2094.67 870.478 2057.06H863.09L762.205 2235.19H733.727L838.91 1947.71H865.373L834.477 2031.4C828.835 2046.63 823.058 2061.36 817.148 2075.6C811.326 2089.84 804.52 2105.64 796.729 2123.02H804.117L903.39 1947.71H932.406L827.223 2235.19Z" fill="black"/>
<path d="M620.18 2235.19L725.363 1947.71H762.976C773.991 1947.71 782.544 1950.71 788.634 1956.71C794.813 1962.62 798.127 1971.27 798.574 1982.64C799.022 1993.92 796.38 2007.54 790.649 2023.48L779.902 2052.09C773.633 2069.02 767.006 2082.63 760.021 2092.93C753.035 2103.14 745.199 2110.57 736.512 2115.23C727.825 2119.88 717.75 2122.21 706.287 2122.21H689.63L648.255 2235.19H620.18ZM721.198 2079.9C726.213 2079.9 730.602 2078.87 734.363 2076.81C738.214 2074.75 741.707 2071.34 744.841 2066.6C748.065 2061.76 751.199 2055.27 754.244 2047.12L763.11 2022.81C765.618 2015.73 766.782 2009.73 766.603 2004.8C766.424 1999.88 764.991 1996.21 762.304 1993.79C759.707 1991.28 756.035 1990.03 751.289 1990.03H737.99L705.078 2079.9H721.198Z" fill="black"/>
<path d="M537.438 2235.19L627.038 1990.03H593.32L608.768 1947.71H704.279L688.831 1990.03H655.113L565.379 2235.19H537.438Z" fill="black"/>
<path d="M2203.22 952.097H2196.13V929.861H2180.65L2165.94 952.097H2157.44L2173.24 928.88C2168.74 928.081 2165.1 926.301 2162.34 923.539C2159.58 920.705 2158.2 916.927 2158.2 912.203C2158.2 908.497 2158.82 905.518 2160.05 903.265C2161.29 901.013 2162.96 899.196 2165.07 897.815C2167.1 896.507 2169.39 895.672 2171.93 895.308C2174.55 894.872 2177.38 894.654 2180.44 894.654H2203.22V952.097ZM2196.13 900.649H2181.74C2179.42 900.649 2177.2 900.758 2175.1 900.976C2172.99 901.194 2171.28 901.703 2169.97 902.502C2168.74 903.302 2167.65 904.464 2166.7 905.99C2165.83 907.444 2165.39 909.333 2165.39 911.658C2165.39 913.693 2165.72 915.473 2166.38 916.999C2167.1 918.453 2168.05 919.615 2169.21 920.487C2170.3 921.287 2171.46 921.941 2172.7 922.449C2174.01 922.885 2175.35 923.212 2176.73 923.43C2178.18 923.648 2179.6 923.794 2180.98 923.866C2182.36 923.866 2183.71 923.866 2185.01 923.866H2196.13V900.649Z" fill="black"/>
<path d="M2125 952.751C2120.5 952.751 2116.57 952.024 2113.23 950.571C2109.89 949.118 2107.09 947.083 2104.84 944.467C2102.58 941.851 2100.88 938.763 2099.71 935.202C2098.62 931.641 2098.08 927.754 2098.08 923.539C2098.08 919.179 2098.66 915.219 2099.82 911.658C2100.98 908.025 2102.73 904.9 2105.05 902.284C2107.38 899.668 2110.25 897.633 2113.67 896.18C2117.08 894.727 2121.04 894 2125.55 894C2130.78 894 2135.36 895.272 2139.28 897.815C2143.28 900.358 2145.97 904.246 2147.35 909.478H2140.04C2139.03 906.281 2137.1 903.919 2134.27 902.393C2131.5 900.867 2128.45 900.104 2125.11 900.104C2121.69 900.104 2118.72 900.722 2116.17 901.957C2113.7 903.192 2111.63 904.9 2109.96 907.08C2108.36 909.187 2107.16 911.658 2106.36 914.492C2105.56 917.326 2105.16 920.342 2105.16 923.539C2105.16 926.664 2105.56 929.643 2106.36 932.477C2107.16 935.238 2108.36 937.673 2109.96 939.78C2111.63 941.887 2113.74 943.559 2116.28 944.794C2118.9 946.029 2121.95 946.647 2125.44 946.647C2128.93 946.647 2132.05 945.993 2134.81 944.685C2137.57 943.377 2139.57 940.943 2140.81 937.382H2148.22C2147.42 940.071 2146.26 942.396 2144.73 944.358C2143.2 946.247 2141.39 947.846 2139.28 949.154C2137.25 950.389 2134.99 951.298 2132.52 951.879C2130.05 952.46 2127.54 952.751 2125 952.751Z" fill="black"/>
<path d="M2091.12 894.654V900.649H2070.52V952.097H2063.33V900.649H2042.73V894.654H2091.12Z" fill="black"/>
<path d="M1991.26 925.719C1991.41 928.771 1991.92 931.569 1992.79 934.112C1993.74 936.655 1995.04 938.872 1996.71 940.761C1998.39 942.578 2000.42 944.031 2002.82 945.121C2005.29 946.138 2008.16 946.647 2011.43 946.647C2012.96 946.647 2014.48 946.502 2016.01 946.211C2017.61 945.92 2019.1 945.484 2020.48 944.903C2021.93 944.249 2023.24 943.413 2024.4 942.396C2025.56 941.379 2026.47 940.107 2027.13 938.581H2034.65C2033.85 941.124 2032.61 943.304 2030.94 945.121C2029.34 946.938 2027.49 948.427 2025.38 949.59C2023.27 950.68 2020.99 951.479 2018.51 951.988C2016.04 952.497 2013.57 952.751 2011.1 952.751C2006.6 952.751 2002.64 952.024 1999.22 950.571C1995.88 949.118 1993.08 947.119 1990.83 944.576C1988.58 941.96 1986.9 938.872 1985.81 935.311C1984.72 931.678 1984.18 927.717 1984.18 923.43C1984.18 919.07 1984.76 915.073 1985.92 911.44C1987.09 907.807 1988.79 904.718 1991.05 902.175C1993.37 899.559 1996.21 897.561 1999.55 896.18C2002.96 894.727 2006.85 894 2011.21 894C2015.79 894 2019.64 894.908 2022.77 896.725C2025.96 898.542 2028.54 900.94 2030.5 903.919C2032.47 906.826 2033.85 910.205 2034.65 914.056C2035.52 917.835 2035.88 921.722 2035.74 925.719H1991.26ZM2028.43 919.724C2028.36 917.108 2027.93 914.601 2027.13 912.203C2026.4 909.805 2025.27 907.734 2023.75 905.99C2022.29 904.173 2020.44 902.756 2018.19 901.739C2015.94 900.649 2013.32 900.104 2010.34 900.104C2007.36 900.104 2004.71 900.649 2002.38 901.739C2000.13 902.829 1998.2 904.282 1996.61 906.099C1995.01 907.916 1993.77 910.023 1992.9 912.421C1992.03 914.746 1991.52 917.181 1991.37 919.724H2028.43Z" fill="black"/>
<path d="M1968.39 894.654H1976.68L1957.49 949.045C1956.91 950.717 1956.18 952.642 1955.31 954.822C1954.44 957.002 1953.46 959.182 1952.37 961.362C1951.35 963.542 1950.23 965.613 1948.99 967.575C1947.83 969.537 1946.63 971.1 1945.39 972.262C1943.07 974.588 1940.56 976.077 1937.87 976.731C1935.26 977.385 1932.1 977.712 1928.39 977.712V970.845C1929.7 970.845 1930.93 970.809 1932.1 970.736C1933.26 970.664 1934.31 970.446 1935.26 970.082C1936.85 969.574 1938.24 968.774 1939.4 967.684C1940.63 966.667 1941.72 965.504 1942.67 964.196C1943.61 962.888 1944.45 961.471 1945.18 959.945C1945.9 958.492 1946.56 957.039 1947.14 955.585L1921.2 894.654H1929.81L1951.28 946.429L1968.39 894.654Z" fill="black"/>
<path d="M1864.05 952.097V894.654H1871.25V920.923H1903.73V894.654H1910.92V952.097H1903.73V926.918H1871.25V952.097H1864.05Z" fill="black"/>
<path d="M1848.32 894.654V952.097H1841.12V900.649H1816.27C1816.2 902.684 1816.12 904.755 1816.05 906.862L1815.51 918.961C1815.43 920.996 1815.36 923.067 1815.29 925.174C1815.14 927.064 1814.96 929.062 1814.74 931.169C1814.6 933.277 1814.31 935.384 1813.87 937.491C1813.44 939.526 1812.82 941.488 1812.02 943.377C1811.22 945.267 1810.13 946.902 1808.75 948.282C1807 950.026 1805.19 951.189 1803.3 951.77C1801.41 952.279 1799.27 952.533 1796.87 952.533V945.775C1799.05 945.63 1800.83 945.012 1802.21 943.922C1803.66 942.76 1804.79 941.234 1805.59 939.344C1806.53 937.019 1807.15 934.476 1807.44 931.714C1807.8 928.88 1808.06 926.482 1808.2 924.52C1808.57 919.506 1808.78 914.529 1808.86 909.587C1809 904.646 1809.15 899.668 1809.29 894.654H1848.32Z" fill="black"/>
<path d="M1761.92 894C1766.43 894 1770.35 894.727 1773.69 896.18C1777.11 897.633 1779.94 899.668 1782.2 902.284C1784.52 904.9 1786.27 908.025 1787.43 911.658C1788.59 915.219 1789.17 919.143 1789.17 923.43C1789.17 927.717 1788.59 931.678 1787.43 935.311C1786.27 938.872 1784.52 941.96 1782.2 944.576C1779.94 947.119 1777.11 949.118 1773.69 950.571C1770.35 952.024 1766.43 952.751 1761.92 952.751C1757.42 952.751 1753.46 952.024 1750.04 950.571C1746.7 949.118 1743.86 947.119 1741.54 944.576C1739.29 941.96 1737.58 938.872 1736.42 935.311C1735.33 931.678 1734.78 927.717 1734.78 923.43C1734.78 919.143 1735.33 915.219 1736.42 911.658C1737.58 908.025 1739.29 904.9 1741.54 902.284C1743.86 899.668 1746.7 897.633 1750.04 896.18C1753.46 894.727 1757.42 894 1761.92 894ZM1761.92 946.647C1765.41 946.647 1768.43 946.066 1770.97 944.903C1773.51 943.668 1775.58 941.996 1777.18 939.889C1778.85 937.782 1780.05 935.311 1780.78 932.477C1781.58 929.643 1781.98 926.627 1781.98 923.43C1781.98 920.233 1781.58 917.217 1780.78 914.383C1780.05 911.549 1778.85 909.078 1777.18 906.971C1775.58 904.864 1773.51 903.192 1770.97 901.957C1768.43 900.722 1765.41 900.104 1761.92 900.104C1758.43 900.104 1755.42 900.722 1752.88 901.957C1750.33 903.192 1748.22 904.864 1746.55 906.971C1744.95 909.078 1743.76 911.549 1742.96 914.383C1742.23 917.217 1741.87 920.233 1741.87 923.43C1741.87 926.627 1742.23 929.643 1742.96 932.477C1743.76 935.311 1744.95 937.782 1746.55 939.889C1748.22 941.996 1750.33 943.668 1752.88 944.903C1755.42 946.066 1758.43 946.647 1761.92 946.647Z" fill="black"/>
<path d="M1677.03 894.654H1699.05C1701.23 894.654 1703.52 894.8 1705.92 895.09C1708.39 895.381 1710.6 895.999 1712.57 896.943C1714.6 897.888 1716.27 899.269 1717.58 901.085C1718.96 902.829 1719.69 905.191 1719.76 908.17C1719.83 910.932 1719.21 913.475 1717.91 915.8C1716.67 918.126 1714.67 919.979 1711.91 921.359C1715.4 922.086 1718.16 923.612 1720.2 925.937C1722.23 928.19 1723.25 931.387 1723.25 935.529C1723.25 938.727 1722.59 941.452 1721.29 943.704C1720.05 945.884 1718.38 947.628 1716.27 948.936C1714.53 950.099 1712.49 950.935 1710.17 951.443C1707.84 951.879 1705.48 952.097 1703.08 952.097H1677.03V894.654ZM1684.23 900.649V919.724H1698.83C1700.28 919.724 1701.99 919.579 1703.95 919.288C1705.92 918.925 1707.59 918.271 1708.97 917.326C1710.13 916.6 1711.08 915.655 1711.8 914.492C1712.53 913.257 1712.89 911.731 1712.89 909.914C1712.89 907.88 1712.46 906.245 1711.58 905.009C1710.78 903.774 1709.69 902.829 1708.31 902.175C1706.93 901.521 1705.41 901.122 1703.74 900.976C1702.06 900.758 1700.39 900.649 1698.72 900.649H1684.23ZM1684.23 946.102H1701.23C1702.9 946.102 1704.61 945.993 1706.35 945.775C1708.1 945.485 1709.66 945.012 1711.04 944.358C1712.49 943.632 1713.69 942.651 1714.64 941.415C1715.58 940.107 1716.05 938.4 1716.05 936.292C1716.05 933.822 1715.54 931.896 1714.53 930.515C1713.58 929.135 1712.31 928.081 1710.71 927.354C1709.11 926.628 1707.33 926.192 1705.37 926.046C1703.48 925.828 1701.59 925.719 1699.7 925.719H1684.23V946.102Z" fill="black"/>
<path d="M1625.25 943.813C1622.49 947.156 1619.33 949.481 1615.77 950.789C1612.28 952.097 1608.43 952.751 1604.21 952.751C1601.67 952.751 1599.2 952.46 1596.8 951.879C1594.48 951.225 1592.37 950.208 1590.48 948.827C1588.59 947.446 1587.06 945.702 1585.9 943.595C1584.81 941.415 1584.27 938.981 1584.27 936.292C1584.27 933.022 1584.88 930.297 1586.12 928.117C1587.35 925.937 1588.95 924.193 1590.91 922.885C1592.95 921.577 1595.27 920.669 1597.89 920.16C1600.51 919.579 1603.23 919.288 1606.07 919.288H1624.92C1624.92 916.672 1624.63 914.201 1624.05 911.876C1623.54 909.551 1622.67 907.516 1621.43 905.772C1620.2 904.028 1618.56 902.647 1616.53 901.63C1614.57 900.613 1612.13 900.104 1609.23 900.104C1607.85 900.104 1606.43 900.213 1604.98 900.431C1603.59 900.649 1602.25 901.012 1600.94 901.521C1599.71 902.03 1598.54 902.756 1597.45 903.701C1596.44 904.573 1595.6 905.663 1594.95 906.971H1587.1C1587.75 904.573 1588.84 902.575 1590.37 900.976C1591.9 899.305 1593.68 897.96 1595.71 896.943C1597.82 895.853 1600.03 895.09 1602.36 894.654C1604.76 894.218 1607.12 894 1609.44 894C1613.66 894 1617.22 894.69 1620.13 896.071C1623.03 897.452 1625.36 899.377 1627.1 901.848C1628.92 904.246 1630.19 907.08 1630.92 910.35C1631.72 913.62 1632.12 917.144 1632.12 920.923V952.097H1626.23L1625.25 943.813ZM1609.77 925.065C1607.88 925.065 1605.85 925.138 1603.67 925.283C1601.56 925.428 1599.6 925.864 1597.78 926.591C1595.96 927.245 1594.44 928.299 1593.2 929.752C1592.04 931.133 1591.46 933.058 1591.46 935.529C1591.46 937.491 1591.82 939.162 1592.55 940.543C1593.35 941.924 1594.37 943.086 1595.6 944.031C1596.91 944.976 1598.36 945.666 1599.96 946.102C1601.63 946.538 1603.34 946.756 1605.08 946.756C1607.92 946.756 1610.53 946.393 1612.93 945.666C1615.4 944.939 1617.51 943.849 1619.25 942.396C1621.07 940.87 1622.45 939.017 1623.4 936.837C1624.41 934.584 1624.92 931.968 1624.92 928.989V925.065H1609.77Z" fill="black"/>
<path d="M1498.84 894.654H1506.03V946.102H1530.99V894.654H1538.18V946.102H1563.36V894.654H1570.56V952.097H1498.84V894.654Z" fill="black"/>
<path d="M1480.87 894.654H1489.15L1469.97 949.045C1469.39 950.717 1468.66 952.642 1467.79 954.822C1466.92 957.002 1465.94 959.182 1464.85 961.362C1463.83 963.542 1462.7 965.613 1461.47 967.575C1460.3 969.537 1459.11 971.1 1457.87 972.262C1455.54 974.588 1453.04 976.077 1450.35 976.731C1447.73 977.385 1444.57 977.712 1440.87 977.712V970.845C1442.17 970.845 1443.41 970.809 1444.57 970.736C1445.73 970.664 1446.79 970.446 1447.73 970.082C1449.33 969.574 1450.71 968.774 1451.87 967.684C1453.11 966.667 1454.2 965.504 1455.14 964.196C1456.09 962.888 1456.93 961.471 1457.65 959.945C1458.38 958.492 1459.03 957.039 1459.61 955.585L1433.67 894.654H1442.28L1463.76 946.429L1480.87 894.654Z" fill="black"/>
<path d="M1420.54 894.654V946.102H1428.39V970.409H1421.52V952.097H1375.2V970.409H1368.44V946.211C1369.75 946.139 1370.87 945.775 1371.82 945.121C1372.83 944.395 1373.71 943.559 1374.43 942.614C1375.23 941.597 1375.89 940.507 1376.39 939.344C1376.9 938.182 1377.34 937.055 1377.7 935.965C1378.72 932.695 1379.41 929.171 1379.77 925.392C1380.14 921.541 1380.35 918.089 1380.43 915.037C1380.5 911.622 1380.57 908.207 1380.65 904.791C1380.72 901.376 1380.72 897.997 1380.65 894.654H1420.54ZM1413.35 900.649H1387.51C1387.51 901.885 1387.48 903.193 1387.4 904.573L1387.29 913.075C1387.29 914.383 1387.26 915.691 1387.19 916.999C1387.11 920.269 1386.93 923.576 1386.64 926.918C1386.42 930.188 1385.84 933.422 1384.9 936.619C1384.32 938.727 1383.55 940.616 1382.61 942.287C1381.66 943.886 1380.75 945.158 1379.88 946.102H1413.35V900.649Z" fill="black"/>
<path d="M1290.44 862.5C1290.44 879.897 1276.33 894 1258.94 894C1241.54 894 1227.44 879.897 1227.44 862.5C1227.44 845.103 1241.54 831 1258.94 831C1276.33 831 1290.44 845.103 1290.44 862.5Z" fill="black"/>
<path d="M1725.08 1214.78H1689.35L1704.39 1287.19H1676.45L1621.24 999.713H1653.62L1786.47 1287.19H1757.46L1725.08 1214.78ZM1674.3 1142.11L1681.29 1176.63H1708.02L1692.3 1142.11C1685.41 1127.33 1677.57 1108.66 1668.8 1086.09H1661.41C1666.33 1106.78 1670.63 1125.45 1674.3 1142.11Z" fill="black"/>
<path d="M1559.88 1118.06C1564 1118.06 1567.27 1116.85 1569.69 1114.43C1572.11 1112.02 1573.45 1108.48 1573.72 1103.82C1574.08 1099.16 1573.23 1093.52 1571.17 1086.9L1566.6 1072.52C1564.09 1065.09 1561.45 1059.18 1558.68 1054.79C1555.9 1050.31 1552.76 1047.09 1549.27 1045.12C1545.87 1043.06 1541.84 1042.03 1537.18 1042.03H1520.93L1545.78 1118.06H1559.88ZM1573.05 1287.19L1479.02 999.713H1523.61C1534.81 999.713 1544.57 1002.09 1552.9 1006.83C1561.23 1011.58 1568.57 1018.92 1574.93 1028.86C1581.38 1038.71 1587.33 1051.57 1592.8 1067.42L1594.95 1074.27C1598.26 1084.84 1599.96 1093.93 1600.05 1101.54C1600.23 1109.15 1599.24 1115.33 1597.09 1120.08C1595.03 1124.82 1592.35 1128.99 1589.03 1132.57C1588.68 1132.84 1588.36 1133.11 1588.09 1133.37C1587.83 1133.64 1587.51 1133.91 1587.15 1134.18L1589.57 1141.57C1590.11 1141.75 1590.6 1141.93 1591.05 1142.11C1591.5 1142.2 1591.99 1142.37 1592.53 1142.64C1598.89 1144.97 1604.57 1148.24 1609.59 1152.45C1614.6 1156.57 1619.48 1162.7 1624.23 1170.85C1629.07 1179 1633.86 1189.84 1638.6 1203.36L1642.63 1215.59C1647.2 1230.18 1649.04 1242.9 1648.14 1253.74C1647.34 1264.48 1643.89 1272.77 1637.8 1278.59C1631.71 1284.32 1623.33 1287.19 1612.68 1287.19H1573.05ZM1601.66 1244.87C1606.05 1244.87 1609.54 1243.66 1612.14 1241.24C1614.83 1238.83 1616.35 1235.29 1616.71 1230.63C1617.07 1225.89 1616.21 1220.2 1614.15 1213.57L1606.77 1190.87C1604.08 1182.99 1601.26 1176.72 1598.3 1172.06C1595.35 1167.41 1592.08 1164.09 1588.5 1162.12C1584.92 1160.06 1580.66 1159.03 1575.74 1159.03H1559.21L1587.29 1244.87H1601.66Z" fill="black"/>
<path d="M1453.6 1320.77L1428.75 1244.87H1445.01C1442.77 1235.83 1440.26 1226.42 1437.48 1216.66C1434.71 1206.81 1431.17 1195.26 1426.87 1182L1368.44 999.713H1449.04L1529.23 1244.87H1547.37L1572.22 1320.77H1544.41L1533.4 1287.19H1470.4L1481.41 1320.77H1453.6ZM1472.55 1244.87H1501.56L1435.07 1041.49H1409.14L1454.14 1182C1458.35 1195.17 1461.84 1206.59 1464.62 1216.26C1467.49 1225.93 1470.13 1235.47 1472.55 1244.87Z" fill="black"/>
<path d="M859.069 420.097H851.984V397.861H836.506L821.791 420.097H813.289L829.094 396.88C824.589 396.081 820.955 394.301 818.194 391.539C815.433 388.705 814.052 384.927 814.052 380.203C814.052 376.497 814.67 373.518 815.905 371.265C817.14 369.013 818.812 367.196 820.919 365.815C822.954 364.507 825.243 363.672 827.786 363.308C830.402 362.872 833.236 362.654 836.288 362.654H859.069V420.097ZM851.984 368.649H837.596C835.271 368.649 833.054 368.758 830.947 368.976C828.84 369.194 827.132 369.703 825.824 370.502C824.589 371.302 823.499 372.464 822.554 373.99C821.682 375.444 821.246 377.333 821.246 379.658C821.246 381.693 821.573 383.473 822.227 384.999C822.954 386.453 823.898 387.615 825.061 388.487C826.151 389.287 827.314 389.941 828.549 390.449C829.857 390.885 831.201 391.212 832.582 391.43C834.035 391.648 835.452 391.794 836.833 391.866C838.214 391.866 839.558 391.866 840.866 391.866H851.984V368.649Z" fill="black"/>
<path d="M780.845 420.751C776.34 420.751 772.416 420.024 769.073 418.571C765.73 417.118 762.933 415.083 760.68 412.467C758.427 409.851 756.719 406.763 755.557 403.202C754.467 399.641 753.922 395.754 753.922 391.539C753.922 387.179 754.503 383.219 755.666 379.658C756.828 376.025 758.572 372.9 760.898 370.284C763.223 367.668 766.094 365.633 769.509 364.18C772.924 362.727 776.884 362 781.39 362C786.622 362 791.2 363.272 795.124 365.815C799.121 368.358 801.809 372.246 803.19 377.478H795.887C794.87 374.281 792.944 371.919 790.11 370.393C787.349 368.867 784.297 368.104 780.954 368.104C777.539 368.104 774.559 368.722 772.016 369.957C769.545 371.192 767.474 372.9 765.803 375.08C764.204 377.187 763.005 379.658 762.206 382.492C761.407 385.326 761.007 388.342 761.007 391.539C761.007 394.664 761.407 397.643 762.206 400.477C763.005 403.238 764.204 405.673 765.803 407.78C767.474 409.887 769.581 411.559 772.125 412.794C774.741 414.029 777.793 414.647 781.281 414.647C784.769 414.647 787.894 413.993 790.655 412.685C793.416 411.377 795.415 408.943 796.65 405.382H804.062C803.262 408.071 802.1 410.396 800.574 412.358C799.048 414.247 797.231 415.846 795.124 417.154C793.089 418.389 790.837 419.298 788.366 419.879C785.895 420.46 783.388 420.751 780.845 420.751Z" fill="black"/>
<path d="M746.974 362.654V368.649H726.373V420.097H719.179V368.649H698.578V362.654H746.974Z" fill="black"/>
<path d="M647.116 393.719C647.262 396.771 647.77 399.569 648.642 402.112C649.587 404.655 650.895 406.872 652.566 408.761C654.238 410.578 656.272 412.031 658.67 413.121C661.141 414.138 664.011 414.647 667.281 414.647C668.807 414.647 670.333 414.502 671.859 414.211C673.458 413.92 674.948 413.484 676.328 412.903C677.782 412.249 679.09 411.413 680.252 410.396C681.415 409.379 682.323 408.107 682.977 406.581H690.498C689.699 409.124 688.464 411.304 686.792 413.121C685.194 414.938 683.341 416.427 681.233 417.59C679.126 418.68 676.837 419.479 674.366 419.988C671.896 420.497 669.425 420.751 666.954 420.751C662.449 420.751 658.489 420.024 655.073 418.571C651.731 417.118 648.933 415.119 646.68 412.576C644.428 409.96 642.756 406.872 641.666 403.311C640.576 399.678 640.031 395.717 640.031 391.43C640.031 387.07 640.613 383.073 641.775 379.44C642.938 375.807 644.646 372.718 646.898 370.175C649.224 367.559 652.058 365.561 655.4 364.18C658.816 362.727 662.703 362 667.063 362C671.641 362 675.493 362.908 678.617 364.725C681.815 366.542 684.394 368.94 686.356 371.919C688.318 374.826 689.699 378.205 690.498 382.056C691.37 385.835 691.734 389.722 691.588 393.719H647.116ZM684.285 387.724C684.213 385.108 683.777 382.601 682.977 380.203C682.251 377.805 681.124 375.734 679.598 373.99C678.145 372.173 676.292 370.756 674.039 369.739C671.787 368.649 669.171 368.104 666.191 368.104C663.212 368.104 660.56 368.649 658.234 369.739C655.982 370.829 654.056 372.282 652.457 374.099C650.859 375.916 649.623 378.023 648.751 380.421C647.879 382.746 647.371 385.181 647.225 387.724H684.285Z" fill="black"/>
<path d="M624.236 362.654H632.52L613.336 417.045C612.755 418.717 612.028 420.642 611.156 422.822C610.284 425.002 609.303 427.182 608.213 429.362C607.196 431.542 606.069 433.613 604.834 435.575C603.671 437.537 602.472 439.1 601.237 440.262C598.912 442.588 596.405 444.077 593.716 444.731C591.1 445.385 587.939 445.712 584.233 445.712V438.845C585.541 438.845 586.776 438.809 587.939 438.736C589.102 438.664 590.155 438.446 591.1 438.082C592.699 437.574 594.079 436.774 595.242 435.684C596.477 434.667 597.567 433.504 598.512 432.196C599.457 430.888 600.292 429.471 601.019 427.945C601.746 426.492 602.4 425.039 602.981 423.585L577.039 362.654H585.65L607.123 414.429L624.236 362.654Z" fill="black"/>
<path d="M519.898 420.097V362.654H527.092V388.923H559.574V362.654H566.768V420.097H559.574V394.918H527.092V420.097H519.898Z" fill="black"/>
<path d="M504.167 362.654V420.097H496.973V368.649H472.121C472.048 370.684 471.975 372.755 471.903 374.862L471.358 386.961C471.285 388.996 471.212 391.067 471.14 393.174C470.994 395.064 470.813 397.062 470.595 399.169C470.449 401.277 470.159 403.384 469.723 405.491C469.287 407.526 468.669 409.488 467.87 411.377C467.07 413.267 465.98 414.902 464.6 416.282C462.856 418.026 461.039 419.189 459.15 419.77C457.26 420.279 455.117 420.533 452.719 420.533V413.775C454.899 413.63 456.679 413.012 458.06 411.922C459.513 410.76 460.639 409.234 461.439 407.344C462.383 405.019 463.001 402.476 463.292 399.714C463.655 396.88 463.909 394.482 464.055 392.52C464.418 387.506 464.636 382.529 464.709 377.587C464.854 372.646 464.999 367.668 465.145 362.654H504.167Z" fill="black"/>
<path d="M417.766 362C422.271 362 426.195 362.727 429.538 364.18C432.953 365.633 435.787 367.668 438.04 370.284C440.365 372.9 442.109 376.025 443.272 379.658C444.435 383.219 445.016 387.143 445.016 391.43C445.016 395.717 444.435 399.678 443.272 403.311C442.109 406.872 440.365 409.96 438.04 412.576C435.787 415.119 432.953 417.118 429.538 418.571C426.195 420.024 422.271 420.751 417.766 420.751C413.261 420.751 409.3 420.024 405.885 418.571C402.542 417.118 399.708 415.119 397.383 412.576C395.13 409.96 393.423 406.872 392.26 403.311C391.17 399.678 390.625 395.717 390.625 391.43C390.625 387.143 391.17 383.219 392.26 379.658C393.423 376.025 395.13 372.9 397.383 370.284C399.708 367.668 402.542 365.633 405.885 364.18C409.3 362.727 413.261 362 417.766 362ZM417.766 414.647C421.254 414.647 424.27 414.066 426.813 412.903C429.356 411.668 431.427 409.996 433.026 407.889C434.697 405.782 435.896 403.311 436.623 400.477C437.422 397.643 437.822 394.627 437.822 391.43C437.822 388.233 437.422 385.217 436.623 382.383C435.896 379.549 434.697 377.078 433.026 374.971C431.427 372.864 429.356 371.192 426.813 369.957C424.27 368.722 421.254 368.104 417.766 368.104C414.278 368.104 411.262 368.722 408.719 369.957C406.176 371.192 404.068 372.864 402.397 374.971C400.798 377.078 399.599 379.549 398.8 382.383C398.073 385.217 397.71 388.233 397.71 391.43C397.71 394.627 398.073 397.643 398.8 400.477C399.599 403.311 400.798 405.782 402.397 407.889C404.068 409.996 406.176 411.668 408.719 412.903C411.262 414.066 414.278 414.647 417.766 414.647Z" fill="black"/>
<path d="M332.875 362.654H354.893C357.073 362.654 359.362 362.8 361.76 363.09C364.231 363.381 366.447 363.999 368.409 364.943C370.444 365.888 372.115 367.269 373.423 369.085C374.804 370.829 375.53 373.191 375.603 376.17C375.676 378.932 375.058 381.475 373.75 383.8C372.515 386.126 370.516 387.979 367.755 389.359C371.243 390.086 374.004 391.612 376.039 393.937C378.074 396.19 379.091 399.387 379.091 403.529C379.091 406.727 378.437 409.452 377.129 411.704C375.894 413.884 374.222 415.628 372.115 416.936C370.371 418.099 368.336 418.935 366.011 419.443C363.686 419.879 361.324 420.097 358.926 420.097H332.875V362.654ZM340.069 368.649V387.724H354.675C356.128 387.724 357.836 387.579 359.798 387.288C361.76 386.925 363.431 386.271 364.812 385.326C365.975 384.6 366.919 383.655 367.646 382.492C368.373 381.257 368.736 379.731 368.736 377.914C368.736 375.88 368.3 374.245 367.428 373.009C366.629 371.774 365.539 370.829 364.158 370.175C362.777 369.521 361.251 369.122 359.58 368.976C357.909 368.758 356.237 368.649 354.566 368.649H340.069ZM340.069 414.102H357.073C358.744 414.102 360.452 413.993 362.196 413.775C363.94 413.485 365.502 413.012 366.883 412.358C368.336 411.632 369.535 410.651 370.48 409.415C371.425 408.107 371.897 406.4 371.897 404.292C371.897 401.822 371.388 399.896 370.371 398.515C369.426 397.135 368.155 396.081 366.556 395.354C364.957 394.628 363.177 394.192 361.215 394.046C359.326 393.828 357.436 393.719 355.547 393.719H340.069V414.102Z" fill="black"/>
<path d="M227.602 362.654H239.047L258.013 393.828L276.543 362.654H287.77V420.097H280.576V369.303L259.212 405.491H256.378L234.796 369.412V420.097H227.602V362.654Z" fill="black"/>
<path d="M209.635 362.654H217.919L198.735 417.045C198.153 418.717 197.427 420.642 196.555 422.822C195.683 425.002 194.702 427.182 193.612 429.362C192.594 431.542 191.468 433.613 190.233 435.575C189.07 437.537 187.871 439.1 186.636 440.262C184.31 442.588 181.803 444.077 179.115 444.731C176.499 445.385 173.338 445.712 169.632 445.712V438.845C170.94 438.845 172.175 438.809 173.338 438.736C174.5 438.664 175.554 438.446 176.499 438.082C178.097 437.574 179.478 436.774 180.641 435.684C181.876 434.667 182.966 433.504 183.911 432.196C184.855 430.888 185.691 429.471 186.418 427.945C187.144 426.492 187.798 425.039 188.38 423.585L162.438 362.654H171.049L192.522 414.429L209.635 362.654Z" fill="black"/>
<path d="M84.4375 330.5C84.4375 347.897 70.3345 362 52.9375 362C35.5405 362 21.4375 347.897 21.4375 330.5C21.4375 313.103 35.5405 299 52.9375 299C70.3345 299 84.4375 313.103 84.4375 330.5Z" fill="black"/>
<path d="M376.742 681.169L377.817 678.348L411.937 674.318L407.773 685.87C405.444 692.766 404.459 698.766 404.818 703.871C405.176 708.886 406.698 712.782 409.385 715.558C412.161 718.245 415.878 719.588 420.535 719.588C424.654 719.588 428.415 718.558 431.819 716.498C435.311 714.438 438.58 711.125 441.625 706.558C444.67 701.901 447.58 695.766 450.357 688.154L460.432 661.69C462.939 654.705 463.969 648.749 463.521 643.824C463.073 638.898 461.327 635.182 458.282 632.674C455.237 630.167 451.207 628.913 446.192 628.913H432.222L447.804 586.598H465.402C470.238 586.598 474.537 585.658 478.298 583.777C482.059 581.807 485.462 578.672 488.507 574.374C491.642 570.075 494.507 564.343 497.105 557.179L502.344 542.671C504.583 535.954 505.568 530.133 505.299 525.208C505.03 520.282 503.732 516.521 501.403 513.924C499.075 511.326 496.075 510.028 492.403 510.028C488.821 510.028 485.373 511.147 482.059 513.386C478.835 515.625 475.611 519.207 472.387 524.133C469.253 529.058 466.118 535.506 462.984 543.477L460.835 549.253L429.535 545.223C436.968 526.148 444.535 510.923 452.237 499.55C459.939 488.087 467.91 479.937 476.149 475.101C484.477 470.176 493.657 467.713 503.687 467.713C514.075 467.713 522.583 470.847 529.21 477.116C535.927 483.296 539.823 492.027 540.897 503.311C542.061 514.506 540.046 527.357 534.852 541.865L533.106 546.432C528.718 558.522 523.792 568.508 518.329 576.389C512.866 584.269 507.135 590.359 501.135 594.658C495.134 598.957 488.731 602.091 481.925 604.061L478.97 612.256C483.716 615.659 487.477 619.913 490.254 625.017C493.03 630.122 494.328 636.839 494.149 645.167C493.97 653.496 491.821 663.526 487.701 675.258L483.806 686.005C476.91 704.453 469.79 719.23 462.447 730.335C455.193 741.439 447.312 749.499 438.804 754.515C430.296 759.44 420.669 761.903 409.922 761.903C398.549 761.903 389.325 758.634 382.25 752.097C375.264 745.559 371.19 736.2 370.025 724.021C368.861 711.841 371.1 697.557 376.742 681.169Z" fill="black"/>
<path d="M344.492 686.006H308.088L272.624 758.546H243.07L387.882 471.072H420.793L355.373 758.546H326.76L344.492 686.006ZM343.82 613.331L326.626 647.989H353.895L362.224 613.197C366.612 597.435 371.583 578.808 377.135 557.314H369.747C358.731 581.226 350.089 599.898 343.82 613.331Z" fill="black"/>
<path d="M162.438 758.546L267.62 471.072H305.234C316.249 471.072 324.802 474.072 330.891 480.073C337.071 485.983 340.384 494.625 340.832 505.999C341.28 517.283 338.638 530.895 332.906 546.836L322.16 575.449C315.891 592.375 309.264 605.988 302.278 616.287C295.293 626.496 287.457 633.929 278.77 638.586C270.083 643.243 260.008 645.571 248.545 645.571H231.888L190.513 758.546H162.438ZM263.456 603.256C268.471 603.256 272.859 602.226 276.621 600.167C280.472 598.107 283.964 594.704 287.099 589.957C290.323 585.121 293.457 578.628 296.502 570.479L305.368 546.165C307.876 539.09 309.04 533.089 308.861 528.164C308.682 523.238 307.249 519.567 304.562 517.149C301.965 514.641 298.293 513.387 293.547 513.387H280.248L247.336 603.256H263.456Z" fill="black"/>
<path d="M1368.44 31.5C1368.44 48.897 1354.33 63 1336.94 63C1319.54 63 1305.44 48.897 1305.44 31.5C1305.44 14.103 1319.54 0 1336.94 0C1354.33 0 1368.44 14.103 1368.44 31.5Z" fill="black"/>
<path d="M2170.65 2520.58C2167.89 2523.92 2164.73 2526.25 2161.17 2527.55C2157.68 2528.86 2153.83 2529.52 2149.61 2529.52C2147.07 2529.52 2144.6 2529.23 2142.2 2528.64C2139.87 2527.99 2137.77 2526.97 2135.88 2525.59C2133.99 2524.21 2132.46 2522.47 2131.3 2520.36C2130.21 2518.18 2129.66 2515.75 2129.66 2513.06C2129.66 2509.79 2130.28 2507.06 2131.52 2504.88C2132.75 2502.7 2134.35 2500.96 2136.31 2499.65C2138.35 2498.34 2140.67 2497.43 2143.29 2496.93C2145.91 2496.34 2148.63 2496.05 2151.46 2496.05H2170.32C2170.32 2493.44 2170.03 2490.97 2169.45 2488.64C2168.94 2486.32 2168.07 2484.28 2166.83 2482.54C2165.6 2480.79 2163.96 2479.41 2161.93 2478.4C2159.97 2477.38 2157.53 2476.87 2154.63 2476.87C2153.24 2476.87 2151.83 2476.98 2150.37 2477.2C2148.99 2477.41 2147.65 2477.78 2146.34 2478.29C2145.11 2478.8 2143.94 2479.52 2142.85 2480.47C2141.84 2481.34 2141 2482.43 2140.35 2483.74H2132.5C2133.15 2481.34 2134.24 2479.34 2135.77 2477.74C2137.29 2476.07 2139.07 2474.73 2141.11 2473.71C2143.22 2472.62 2145.43 2471.86 2147.76 2471.42C2150.16 2470.98 2152.52 2470.77 2154.84 2470.77C2159.06 2470.77 2162.62 2471.46 2165.53 2472.84C2168.43 2474.22 2170.76 2476.14 2172.5 2478.61C2174.32 2481.01 2175.59 2483.85 2176.32 2487.12C2177.12 2490.39 2177.52 2493.91 2177.52 2497.69V2528.86H2171.63L2170.65 2520.58ZM2155.17 2501.83C2153.28 2501.83 2151.25 2501.9 2149.07 2502.05C2146.96 2502.19 2145 2502.63 2143.18 2503.36C2141.36 2504.01 2139.84 2505.06 2138.6 2506.52C2137.44 2507.9 2136.86 2509.82 2136.86 2512.29C2136.86 2514.26 2137.22 2515.93 2137.95 2517.31C2138.75 2518.69 2139.76 2519.85 2141 2520.8C2142.31 2521.74 2143.76 2522.43 2145.36 2522.87C2147.03 2523.3 2148.74 2523.52 2150.48 2523.52C2153.32 2523.52 2155.93 2523.16 2158.33 2522.43C2160.8 2521.7 2162.91 2520.61 2164.65 2519.16C2166.47 2517.64 2167.85 2515.78 2168.8 2513.6C2169.81 2511.35 2170.32 2508.73 2170.32 2505.75V2501.83H2155.17Z" fill="black"/>
<path d="M2072.4 2550.34H2065.2V2471.42H2072.4V2481.23C2074.14 2478.54 2076.32 2476.32 2078.94 2474.58C2081.12 2473.2 2083.37 2472.22 2085.7 2471.64C2088.09 2471.06 2090.67 2470.77 2093.43 2470.77C2097.94 2470.77 2101.79 2471.6 2104.99 2473.27C2108.19 2474.94 2110.8 2477.2 2112.84 2480.03C2114.87 2482.86 2116.32 2486.17 2117.2 2489.95C2118.07 2493.66 2118.47 2497.54 2118.4 2501.61C2118.25 2506.55 2117.38 2511.02 2115.78 2515.02C2114.25 2519.02 2111.86 2522.25 2108.59 2524.72C2106.62 2526.25 2104.26 2527.45 2101.5 2528.32C2098.81 2529.12 2095.83 2529.52 2092.56 2529.52C2090.67 2529.52 2088.78 2529.37 2086.89 2529.08C2085 2528.86 2083.22 2528.43 2081.55 2527.77C2079.88 2527.05 2078.21 2526.14 2076.54 2525.05C2074.94 2523.88 2073.56 2522.4 2072.4 2520.58V2550.34ZM2092.13 2523.41C2095.54 2523.41 2098.45 2522.79 2100.85 2521.56C2103.24 2520.32 2105.21 2518.65 2106.73 2516.55C2108.26 2514.37 2109.38 2511.89 2110.11 2509.13C2110.84 2506.3 2111.2 2503.36 2111.2 2500.3C2111.2 2497.18 2110.84 2494.2 2110.11 2491.37C2109.46 2488.46 2108.37 2485.95 2106.84 2483.85C2105.32 2481.74 2103.32 2480.07 2100.85 2478.83C2098.45 2477.52 2095.47 2476.87 2091.91 2476.87C2088.71 2476.87 2085.8 2477.6 2083.19 2479.05C2080.64 2480.43 2078.54 2482.25 2076.87 2484.5C2075.19 2486.61 2074 2489.04 2073.27 2491.8C2072.54 2494.49 2072.18 2497.33 2072.18 2500.3C2072.18 2503.87 2072.72 2507.43 2073.81 2510.99C2074.98 2514.55 2077.05 2517.45 2080.03 2519.71C2083.37 2522.18 2087.4 2523.41 2092.13 2523.41Z" fill="black"/>
<path d="M2047.23 2471.42H2055.51L2036.33 2525.81C2035.75 2527.48 2035.02 2529.41 2034.15 2531.59C2033.28 2533.77 2032.3 2535.95 2031.21 2538.13C2030.19 2540.31 2029.06 2542.38 2027.83 2544.34C2026.66 2546.3 2025.46 2547.87 2024.23 2549.03C2021.9 2551.35 2019.4 2552.84 2016.71 2553.5C2014.09 2554.15 2010.93 2554.48 2007.23 2554.48V2547.61C2008.53 2547.61 2009.77 2547.57 2010.93 2547.5C2012.09 2547.43 2013.15 2547.21 2014.09 2546.85C2015.69 2546.34 2017.07 2545.54 2018.23 2544.45C2019.47 2543.43 2020.56 2542.27 2021.5 2540.96C2022.45 2539.65 2023.28 2538.24 2024.01 2536.71C2024.74 2535.26 2025.39 2533.8 2025.97 2532.35L2000.03 2471.42H2008.64L2030.12 2523.19L2047.23 2471.42Z" fill="black"/>
<path d="M1955.67 2528.86V2471.42H1994.58V2477.41H1962.87V2528.86H1955.67Z" fill="black"/>
<path d="M1901.4 2528.86H1891.38V2471.42H1898.57V2520.91L1930.07 2471.42H1939.99V2528.86H1932.79V2479.81L1901.4 2528.86Z" fill="black"/>
<path d="M1839.78 2453H1846.98V2470.77C1851.77 2470.84 1856.1 2471.53 1859.95 2472.84C1863.8 2474.07 1867.07 2475.93 1869.76 2478.4C1872.52 2480.87 1874.63 2483.96 1876.08 2487.66C1877.53 2491.37 1878.26 2495.69 1878.26 2500.63C1878.26 2505.57 1877.53 2509.86 1876.08 2513.5C1874.63 2517.06 1872.52 2520 1869.76 2522.32C1867.07 2524.65 1863.8 2526.43 1859.95 2527.67C1856.1 2528.83 1851.77 2529.48 1846.98 2529.63V2550.34H1839.78V2529.63C1835.06 2529.48 1830.77 2528.83 1826.92 2527.67C1823.07 2526.43 1819.76 2524.65 1817 2522.32C1814.31 2519.93 1812.21 2516.95 1810.68 2513.39C1809.23 2509.75 1808.5 2505.5 1808.5 2500.63C1808.5 2495.62 1809.23 2491.26 1810.68 2487.55C1812.13 2483.85 1814.2 2480.8 1816.89 2478.4C1819.58 2475.93 1822.85 2474.07 1826.7 2472.84C1830.63 2471.53 1834.99 2470.84 1839.78 2470.77V2453ZM1846.98 2523.63C1850.68 2523.63 1853.99 2523.16 1856.9 2522.22C1859.88 2521.27 1862.42 2519.85 1864.53 2517.96C1866.63 2516.07 1868.23 2513.68 1869.32 2510.77C1870.48 2507.86 1871.07 2504.38 1871.07 2500.31C1871.07 2492.39 1869 2486.54 1864.85 2482.76C1860.78 2478.91 1854.82 2476.98 1846.98 2476.98V2523.63ZM1839.78 2476.98C1831.94 2476.98 1825.94 2478.91 1821.8 2482.76C1817.73 2486.54 1815.69 2492.39 1815.69 2500.31C1815.69 2504.3 1816.24 2507.79 1817.33 2510.77C1818.49 2513.68 1820.13 2516.07 1822.23 2517.96C1824.34 2519.85 1826.85 2521.27 1829.76 2522.22C1832.73 2523.16 1836.08 2523.63 1839.78 2523.63V2476.98Z" fill="black"/>
<path d="M1766.01 2528.86H1758.93V2506.63H1743.45L1728.74 2528.86H1720.23L1736.04 2505.65C1731.53 2504.85 1727.9 2503.07 1725.14 2500.3C1722.38 2497.47 1721 2493.69 1721 2488.97C1721 2485.26 1721.62 2482.28 1722.85 2480.03C1724.09 2477.78 1725.76 2475.96 1727.86 2474.58C1729.9 2473.27 1732.19 2472.44 1734.73 2472.07C1737.35 2471.64 1740.18 2471.42 1743.23 2471.42H1766.01V2528.86ZM1758.93 2477.41H1744.54C1742.22 2477.41 1740 2477.52 1737.89 2477.74C1735.79 2477.96 1734.08 2478.47 1732.77 2479.27C1731.53 2480.07 1730.44 2481.23 1729.5 2482.76C1728.63 2484.21 1728.19 2486.1 1728.19 2488.42C1728.19 2490.46 1728.52 2492.24 1729.17 2493.76C1729.9 2495.22 1730.84 2496.38 1732.01 2497.25C1733.1 2498.05 1734.26 2498.71 1735.49 2499.21C1736.8 2499.65 1738.15 2499.98 1739.53 2500.2C1740.98 2500.41 1742.4 2500.56 1743.78 2500.63C1745.16 2500.63 1746.5 2500.63 1747.81 2500.63H1758.93V2477.41Z" fill="black"/>
<path d="M1701.44 2520.58C1698.68 2523.92 1695.51 2526.25 1691.95 2527.55C1688.47 2528.86 1684.61 2529.52 1680.4 2529.52C1677.86 2529.52 1675.39 2529.23 1672.99 2528.64C1670.66 2527.99 1668.56 2526.97 1666.67 2525.59C1664.78 2524.21 1663.25 2522.47 1662.09 2520.36C1661 2518.18 1660.45 2515.75 1660.45 2513.06C1660.45 2509.79 1661.07 2507.06 1662.31 2504.88C1663.54 2502.7 1665.14 2500.96 1667.1 2499.65C1669.14 2498.34 1671.46 2497.43 1674.08 2496.93C1676.69 2496.34 1679.42 2496.05 1682.25 2496.05H1701.11C1701.11 2493.44 1700.82 2490.97 1700.24 2488.64C1699.73 2486.32 1698.86 2484.28 1697.62 2482.54C1696.39 2480.79 1694.75 2479.41 1692.72 2478.4C1690.76 2477.38 1688.32 2476.87 1685.41 2476.87C1684.03 2476.87 1682.62 2476.98 1681.16 2477.2C1679.78 2477.41 1678.44 2477.78 1677.13 2478.29C1675.89 2478.8 1674.73 2479.52 1673.64 2480.47C1672.62 2481.34 1671.79 2482.43 1671.14 2483.74H1663.29C1663.94 2481.34 1665.03 2479.34 1666.56 2477.74C1668.08 2476.07 1669.86 2474.73 1671.9 2473.71C1674.01 2472.62 1676.22 2471.86 1678.55 2471.42C1680.95 2470.98 1683.31 2470.77 1685.63 2470.77C1689.85 2470.77 1693.41 2471.46 1696.31 2472.84C1699.22 2474.22 1701.55 2476.14 1703.29 2478.61C1705.11 2481.01 1706.38 2483.85 1707.11 2487.12C1707.9 2490.39 1708.3 2493.91 1708.3 2497.69V2528.86H1702.42L1701.44 2520.58ZM1685.96 2501.83C1684.07 2501.83 1682.04 2501.9 1679.86 2502.05C1677.75 2502.19 1675.79 2502.63 1673.97 2503.36C1672.15 2504.01 1670.63 2505.06 1669.39 2506.52C1668.23 2507.9 1667.65 2509.82 1667.65 2512.29C1667.65 2514.26 1668.01 2515.93 1668.74 2517.31C1669.54 2518.69 1670.55 2519.85 1671.79 2520.8C1673.1 2521.74 1674.55 2522.43 1676.15 2522.87C1677.82 2523.3 1679.53 2523.52 1681.27 2523.52C1684.11 2523.52 1686.72 2523.16 1689.12 2522.43C1691.59 2521.7 1693.7 2520.61 1695.44 2519.16C1697.26 2517.64 1698.64 2515.78 1699.58 2513.6C1700.6 2511.35 1701.11 2508.73 1701.11 2505.75V2501.83H1685.96Z" fill="black"/>
<path d="M1607.27 2528.86V2471.42H1614.47V2497.14H1626.78L1644.55 2471.42H1652.51L1633.22 2499L1654.36 2528.86H1646.08L1627.55 2503.14H1614.47V2528.86H1607.27Z" fill="black"/>
<path d="M1571.24 2529.52C1566.73 2529.52 1562.81 2528.79 1559.46 2527.34C1556.12 2525.88 1553.32 2523.85 1551.07 2521.23C1548.82 2518.62 1547.11 2515.53 1545.95 2511.97C1544.86 2508.41 1544.31 2504.52 1544.31 2500.3C1544.31 2495.94 1544.89 2491.98 1546.06 2488.42C1547.22 2484.79 1548.96 2481.67 1551.29 2479.05C1553.61 2476.43 1556.48 2474.4 1559.9 2472.95C1563.31 2471.49 1567.28 2470.77 1571.78 2470.77C1577.01 2470.77 1581.59 2472.04 1585.51 2474.58C1589.51 2477.12 1592.2 2481.01 1593.58 2486.24H1586.28C1585.26 2483.05 1583.33 2480.68 1580.5 2479.16C1577.74 2477.63 1574.69 2476.87 1571.34 2476.87C1567.93 2476.87 1564.95 2477.49 1562.41 2478.72C1559.94 2479.96 1557.86 2481.67 1556.19 2483.85C1554.59 2485.95 1553.4 2488.42 1552.6 2491.26C1551.8 2494.09 1551.4 2497.11 1551.4 2500.3C1551.4 2503.43 1551.8 2506.41 1552.6 2509.24C1553.4 2512 1554.59 2514.44 1556.19 2516.55C1557.86 2518.65 1559.97 2520.32 1562.52 2521.56C1565.13 2522.79 1568.18 2523.41 1571.67 2523.41C1575.16 2523.41 1578.28 2522.76 1581.05 2521.45C1583.81 2520.14 1585.81 2517.71 1587.04 2514.15H1594.45C1593.65 2516.84 1592.49 2519.16 1590.96 2521.12C1589.44 2523.01 1587.62 2524.61 1585.51 2525.92C1583.48 2527.15 1581.23 2528.06 1578.76 2528.64C1576.29 2529.23 1573.78 2529.52 1571.24 2529.52Z" fill="black"/>
<path d="M1486.2 2550.34H1479.01V2471.42H1486.2V2481.23C1487.95 2478.54 1490.13 2476.32 1492.74 2474.58C1494.92 2473.2 1497.17 2472.22 1499.5 2471.64C1501.9 2471.06 1504.48 2470.77 1507.24 2470.77C1511.74 2470.77 1515.6 2471.6 1518.79 2473.27C1521.99 2474.94 1524.61 2477.2 1526.64 2480.03C1528.68 2482.86 1530.13 2486.17 1531 2489.95C1531.87 2493.66 1532.27 2497.54 1532.2 2501.61C1532.05 2506.55 1531.18 2511.02 1529.58 2515.02C1528.06 2519.02 1525.66 2522.25 1522.39 2524.72C1520.43 2526.25 1518.07 2527.45 1515.3 2528.32C1512.62 2529.12 1509.64 2529.52 1506.37 2529.52C1504.48 2529.52 1502.59 2529.37 1500.7 2529.08C1498.81 2528.86 1497.03 2528.43 1495.36 2527.77C1493.69 2527.05 1492.02 2526.14 1490.34 2525.05C1488.75 2523.88 1487.36 2522.4 1486.2 2520.58V2550.34ZM1505.93 2523.41C1509.35 2523.41 1512.25 2522.79 1514.65 2521.56C1517.05 2520.32 1519.01 2518.65 1520.54 2516.55C1522.06 2514.37 1523.19 2511.89 1523.92 2509.13C1524.64 2506.3 1525.01 2503.36 1525.01 2500.3C1525.01 2497.18 1524.64 2494.2 1523.92 2491.37C1523.26 2488.46 1522.17 2485.95 1520.65 2483.85C1519.12 2481.74 1517.12 2480.07 1514.65 2478.83C1512.25 2477.52 1509.27 2476.87 1505.71 2476.87C1502.52 2476.87 1499.61 2477.6 1496.99 2479.05C1494.45 2480.43 1492.34 2482.25 1490.67 2484.5C1489 2486.61 1487.8 2489.04 1487.07 2491.8C1486.35 2494.49 1485.98 2497.33 1485.98 2500.3C1485.98 2503.87 1486.53 2507.43 1487.62 2510.99C1488.78 2514.55 1490.85 2517.45 1493.83 2519.71C1497.17 2522.18 1501.21 2523.41 1505.93 2523.41Z" fill="black"/>
<path d="M1438.29 2470.77C1442.79 2470.77 1446.72 2471.49 1450.06 2472.95C1453.48 2474.4 1456.31 2476.43 1458.56 2479.05C1460.89 2481.67 1462.63 2484.79 1463.8 2488.42C1464.96 2491.98 1465.54 2495.91 1465.54 2500.2C1465.54 2504.48 1464.96 2508.44 1463.8 2512.08C1462.63 2515.64 1460.89 2518.73 1458.56 2521.34C1456.31 2523.88 1453.48 2525.88 1450.06 2527.34C1446.72 2528.79 1442.79 2529.52 1438.29 2529.52C1433.78 2529.52 1429.82 2528.79 1426.41 2527.34C1423.07 2525.88 1420.23 2523.88 1417.91 2521.34C1415.65 2518.73 1413.95 2515.64 1412.78 2512.08C1411.69 2508.44 1411.15 2504.48 1411.15 2500.2C1411.15 2495.91 1411.69 2491.98 1412.78 2488.42C1413.95 2484.79 1415.65 2481.67 1417.91 2479.05C1420.23 2476.43 1423.07 2474.4 1426.41 2472.95C1429.82 2471.49 1433.78 2470.77 1438.29 2470.77ZM1438.29 2523.41C1441.78 2523.41 1444.79 2522.83 1447.34 2521.67C1449.88 2520.43 1451.95 2518.76 1453.55 2516.65C1455.22 2514.55 1456.42 2512.08 1457.15 2509.24C1457.95 2506.41 1458.35 2503.39 1458.35 2500.2C1458.35 2497 1457.95 2493.98 1457.15 2491.15C1456.42 2488.31 1455.22 2485.84 1453.55 2483.74C1451.95 2481.63 1449.88 2479.96 1447.34 2478.72C1444.79 2477.49 1441.78 2476.87 1438.29 2476.87C1434.8 2476.87 1431.79 2477.49 1429.24 2478.72C1426.7 2479.96 1424.59 2481.63 1422.92 2483.74C1421.32 2485.84 1420.12 2488.31 1419.32 2491.15C1418.6 2493.98 1418.23 2497 1418.23 2500.2C1418.23 2503.39 1418.6 2506.41 1419.32 2509.24C1420.12 2512.08 1421.32 2514.55 1422.92 2516.65C1424.59 2518.76 1426.7 2520.43 1429.24 2521.67C1431.79 2522.83 1434.8 2523.41 1438.29 2523.41Z" fill="black"/>
<path d="M1337.44 2471.42H1348.88L1367.85 2502.59L1386.38 2471.42H1397.61V2528.86H1390.41V2478.07L1369.05 2514.26H1366.21L1344.63 2478.18V2528.86H1337.44V2471.42Z" fill="black"/>
<path d="M1976.95 2867.31H1950.22L1922.81 2782.68C1914.75 2758.05 1905.84 2726.89 1896.08 2689.19H1888.83L1911.13 2867.31H1883.46L1789.42 2579.84H1816.02L1843.29 2663.53C1848.22 2678.84 1852.83 2693.89 1857.13 2708.66C1861.42 2723.35 1865.54 2738.84 1869.48 2755.14H1876.74L1854.71 2579.84H1882.78L1976.95 2867.31Z" fill="black"/>
<path d="M1769.91 2867.31L1675.88 2579.84H1720.2C1731.76 2579.84 1741.79 2582.26 1750.3 2587.09C1758.89 2591.84 1766.51 2599.41 1773.13 2609.79C1779.85 2620.09 1786.07 2633.8 1791.8 2650.9L1801.21 2678.84C1806.31 2694.78 1808.46 2708.39 1807.66 2719.68C1806.85 2730.96 1803.31 2739.56 1797.04 2745.47C1790.77 2751.38 1782.13 2754.34 1771.12 2754.34H1761.04L1797.98 2867.31H1769.91ZM1760.77 2712.02C1765.52 2712.02 1769.24 2710.81 1771.92 2708.39C1774.61 2705.89 1776.13 2702.22 1776.49 2697.38C1776.85 2692.45 1775.91 2686.41 1773.67 2679.24L1765.74 2654.93C1762.97 2646.78 1760.06 2640.33 1757.01 2635.59C1753.97 2630.84 1750.56 2627.44 1746.8 2625.38C1743.13 2623.23 1738.79 2622.15 1733.77 2622.15H1717.79L1747.21 2712.02H1760.77Z" fill="black"/>
<path d="M1634.74 2867.31L1540.7 2579.84H1578.18L1611.63 2656C1616.56 2667.47 1621.3 2678.44 1625.87 2688.92C1630.53 2699.31 1635.23 2709.87 1639.98 2720.62H1647.23C1644.81 2709.96 1642.44 2699.44 1640.11 2689.05C1637.78 2678.57 1635.36 2667.56 1632.86 2656L1616.2 2579.84H1652.6L1746.64 2867.31H1721.25L1690.48 2770.99C1680.72 2739.74 1671.14 2707.86 1661.74 2675.35H1654.48L1695.86 2867.31H1685.65L1601.42 2675.35H1594.03C1606.12 2709.02 1617.45 2740.9 1628.02 2770.99L1660.26 2867.31H1634.74Z" fill="black"/>
<path d="M1563.2 2794.91H1527.47L1542.51 2867.31H1514.57L1459.36 2579.84H1491.73L1624.59 2867.31H1595.57L1563.2 2794.91ZM1512.42 2722.23L1519.41 2756.75H1546.14L1530.42 2722.23C1523.53 2707.45 1515.69 2688.78 1506.91 2666.21H1499.53C1504.45 2686.9 1508.75 2705.57 1512.42 2722.23Z" fill="black"/>
<path d="M1385.68 2790.34L1384.87 2788.19L1411.6 2784.16L1415.23 2794.64C1418.01 2802.61 1420.87 2809.1 1423.83 2814.11C1426.78 2819.13 1429.83 2822.76 1432.96 2825C1436.19 2827.23 1439.59 2828.35 1443.17 2828.35C1446.93 2828.35 1449.93 2827.1 1452.17 2824.59C1454.41 2822 1455.62 2818.19 1455.8 2813.17C1455.98 2808.16 1454.95 2802.02 1452.71 2794.77L1444.52 2769.52C1441.74 2761.46 1438.87 2755.14 1435.92 2750.57C1432.96 2745.92 1429.78 2742.6 1426.38 2740.63C1423.07 2738.66 1419.26 2737.68 1414.96 2737.68H1399.51L1385.68 2695.36H1397.9C1401.75 2695.36 1404.89 2694.24 1407.3 2692.01C1409.72 2689.68 1411.11 2686.23 1411.47 2681.66C1411.83 2677 1410.93 2671.36 1408.78 2664.74L1404.08 2650.76C1401.48 2643.15 1398.84 2636.97 1396.16 2632.23C1393.47 2627.48 1390.74 2624.08 1387.96 2622.02C1385.18 2619.87 1382.27 2618.79 1379.23 2618.79C1375.92 2618.79 1373.23 2620.05 1371.17 2622.55C1369.2 2625.06 1368.17 2628.87 1368.08 2633.97C1367.99 2638.99 1369.02 2645.12 1371.17 2652.38L1372.65 2656.94L1343.23 2652.91C1338.75 2637.06 1336.87 2623.36 1337.59 2611.81C1338.3 2600.26 1341.44 2591.48 1346.99 2585.48C1352.45 2579.48 1359.89 2576.48 1369.29 2576.48C1377.53 2576.48 1385.27 2578.94 1392.53 2583.87C1399.87 2588.7 1406.63 2596.18 1412.81 2606.3C1418.99 2616.42 1424.68 2629.18 1429.87 2644.59L1431.22 2648.88C1434.8 2660.53 1436.72 2670.42 1436.99 2678.57C1437.26 2686.72 1436.32 2693.3 1434.17 2698.32C1432.02 2703.24 1429.2 2707.5 1425.71 2711.08L1428.13 2718.47C1434.75 2720.62 1440.66 2723.8 1445.86 2728.01C1451.05 2732.13 1455.98 2738.17 1460.64 2746.14C1465.38 2754.11 1469.95 2764.59 1474.34 2777.58L1477.96 2788.32C1483.61 2805.88 1486.2 2820.83 1485.76 2833.19C1485.31 2845.55 1482.13 2854.91 1476.22 2861.27C1470.31 2867.53 1462.2 2870.67 1451.9 2870.67C1442.86 2870.67 1434.66 2868.12 1427.32 2863.01C1420.07 2857.91 1413.08 2849.53 1406.36 2837.89C1399.65 2826.16 1392.75 2810.31 1385.68 2790.34Z" fill="black"/>
<path d="M1259.44 2421.5C1259.44 2438.9 1245.33 2453 1227.94 2453C1210.54 2453 1196.44 2438.9 1196.44 2421.5C1196.44 2404.1 1210.54 2390 1227.94 2390C1245.33 2390 1259.44 2404.1 1259.44 2421.5Z" fill="black"/>
</svg>
