<svg width="5250" height="3876" viewBox="0 0 5250 3876" fill="none" xmlns="http://www.w3.org/2000/svg">
<path d="M2135.33 463.8H2128.24V441.564H2112.76L2098.05 463.8H2089.55L2105.35 440.583C2100.85 439.784 2097.21 438.004 2094.45 435.242C2091.69 432.408 2090.31 428.63 2090.31 423.906C2090.31 420.2 2090.93 417.221 2092.16 414.968C2093.4 412.716 2095.07 410.899 2097.18 409.518C2099.21 408.21 2101.5 407.375 2104.04 407.011C2106.66 406.575 2109.49 406.357 2112.55 406.357H2135.33V463.8ZM2128.24 412.352H2113.85C2111.53 412.352 2109.31 412.461 2107.2 412.679C2105.1 412.897 2103.39 413.406 2102.08 414.205C2100.85 415.005 2099.76 416.167 2098.81 417.693C2097.94 419.147 2097.5 421.036 2097.5 423.361C2097.5 425.396 2097.83 427.176 2098.48 428.702C2099.21 430.156 2100.16 431.318 2101.32 432.19C2102.41 432.99 2103.57 433.644 2104.81 434.152C2106.11 434.588 2107.46 434.915 2108.84 435.133C2110.29 435.351 2111.71 435.497 2113.09 435.569C2114.47 435.569 2115.82 435.569 2117.12 435.569H2128.24V412.352Z" fill="black"/>
<path d="M2057.1 464.455C2052.6 464.455 2048.67 463.728 2045.33 462.275C2041.99 460.822 2039.19 458.787 2036.94 456.171C2034.69 453.555 2032.98 450.467 2031.81 446.906C2030.72 443.345 2030.18 439.458 2030.18 435.243C2030.18 430.883 2030.76 426.923 2031.92 423.362C2033.09 419.729 2034.83 416.604 2037.16 413.988C2039.48 411.372 2042.35 409.337 2045.77 407.884C2049.18 406.431 2053.14 405.704 2057.65 405.704C2062.88 405.704 2067.46 406.976 2071.38 409.519C2075.38 412.062 2078.07 415.95 2079.45 421.182H2072.14C2071.13 417.985 2069.2 415.623 2066.37 414.097C2063.61 412.571 2060.55 411.808 2057.21 411.808C2053.8 411.808 2050.82 412.426 2048.27 413.661C2045.8 414.896 2043.73 416.604 2042.06 418.784C2040.46 420.891 2039.26 423.362 2038.46 426.196C2037.66 429.03 2037.26 432.046 2037.26 435.243C2037.26 438.368 2037.66 441.347 2038.46 444.181C2039.26 446.942 2040.46 449.377 2042.06 451.484C2043.73 453.591 2045.84 455.263 2048.38 456.498C2051 457.733 2054.05 458.351 2057.54 458.351C2061.03 458.351 2064.15 457.697 2066.91 456.389C2069.67 455.081 2071.67 452.647 2072.91 449.086H2080.32C2079.52 451.775 2078.36 454.1 2076.83 456.062C2075.31 457.951 2073.49 459.55 2071.38 460.858C2069.35 462.093 2067.09 463.002 2064.62 463.583C2062.15 464.164 2059.65 464.455 2057.1 464.455Z" fill="black"/>
<path d="M2023.23 406.357V412.352H2002.63V463.8H1995.44V412.352H1974.84V406.357H2023.23Z" fill="black"/>
<path d="M1923.37 437.423C1923.52 440.475 1924.03 443.273 1924.9 445.816C1925.84 448.359 1927.15 450.576 1928.82 452.465C1930.5 454.282 1932.53 455.735 1934.93 456.825C1937.4 457.842 1940.27 458.351 1943.54 458.351C1945.07 458.351 1946.59 458.206 1948.12 457.915C1949.72 457.624 1951.21 457.188 1952.59 456.607C1954.04 455.953 1955.35 455.117 1956.51 454.1C1957.67 453.083 1958.58 451.811 1959.24 450.285H1966.76C1965.96 452.828 1964.72 455.008 1963.05 456.825C1961.45 458.642 1959.6 460.131 1957.49 461.294C1955.38 462.384 1953.09 463.183 1950.62 463.692C1948.15 464.201 1945.68 464.455 1943.21 464.455C1938.71 464.455 1934.75 463.728 1931.33 462.275C1927.99 460.822 1925.19 458.823 1922.94 456.28C1920.69 453.664 1919.01 450.576 1917.92 447.015C1916.83 443.382 1916.29 439.421 1916.29 435.134C1916.29 430.774 1916.87 426.777 1918.03 423.144C1919.2 419.511 1920.9 416.422 1923.16 413.879C1925.48 411.263 1928.32 409.265 1931.66 407.884C1935.07 406.431 1938.96 405.704 1943.32 405.704C1947.9 405.704 1951.75 406.612 1954.88 408.429C1958.07 410.246 1960.65 412.644 1962.61 415.623C1964.58 418.53 1965.96 421.909 1966.76 425.76C1967.63 429.539 1967.99 433.426 1967.85 437.423H1923.37ZM1960.54 431.428C1960.47 428.812 1960.03 426.305 1959.24 423.907C1958.51 421.509 1957.38 419.438 1955.86 417.694C1954.4 415.877 1952.55 414.46 1950.3 413.443C1948.04 412.353 1945.43 411.808 1942.45 411.808C1939.47 411.808 1936.82 412.353 1934.49 413.443C1932.24 414.533 1930.31 415.986 1928.72 417.803C1927.12 419.62 1925.88 421.727 1925.01 424.125C1924.14 426.45 1923.63 428.885 1923.48 431.428H1960.54Z" fill="black"/>
<path d="M1900.49 406.357H1908.78L1889.59 460.748C1889.01 462.42 1888.29 464.345 1887.41 466.525C1886.54 468.705 1885.56 470.885 1884.47 473.065C1883.45 475.245 1882.33 477.316 1881.09 479.278C1879.93 481.24 1878.73 482.803 1877.49 483.965C1875.17 486.291 1872.66 487.78 1869.97 488.434C1867.36 489.088 1864.2 489.415 1860.49 489.415V482.548C1861.8 482.548 1863.03 482.512 1864.2 482.439C1865.36 482.367 1866.41 482.149 1867.36 481.785C1868.96 481.277 1870.34 480.477 1871.5 479.387C1872.74 478.37 1873.83 477.207 1874.77 475.899C1875.71 474.591 1876.55 473.174 1877.28 471.648C1878 470.195 1878.66 468.742 1879.24 467.288L1853.3 406.357H1861.91L1883.38 458.132L1900.49 406.357Z" fill="black"/>
<path d="M1796.16 463.8V406.357H1803.35V432.626H1835.83V406.357H1843.03V463.8H1835.83V438.621H1803.35V463.8H1796.16Z" fill="black"/>
<path d="M1780.42 406.357V463.8H1773.23V412.352H1748.38C1748.31 414.387 1748.23 416.458 1748.16 418.565L1747.62 430.664C1747.54 432.699 1747.47 434.77 1747.4 436.877C1747.25 438.767 1747.07 440.765 1746.85 442.872C1746.71 444.98 1746.42 447.087 1745.98 449.194C1745.54 451.229 1744.93 453.191 1744.13 455.08C1743.33 456.97 1742.24 458.605 1740.86 459.985C1739.11 461.729 1737.3 462.892 1735.41 463.473C1733.52 463.982 1731.37 464.236 1728.98 464.236V457.478C1731.16 457.333 1732.94 456.715 1734.32 455.625C1735.77 454.463 1736.9 452.937 1737.7 451.047C1738.64 448.722 1739.26 446.179 1739.55 443.417C1739.91 440.583 1740.17 438.185 1740.31 436.223C1740.68 431.209 1740.89 426.232 1740.97 421.29C1741.11 416.349 1741.26 411.371 1741.4 406.357H1780.42Z" fill="black"/>
<path d="M1694.02 405.704C1698.53 405.704 1702.45 406.431 1705.8 407.884C1709.21 409.337 1712.05 411.372 1714.3 413.988C1716.62 416.604 1718.37 419.729 1719.53 423.362C1720.69 426.923 1721.27 430.847 1721.27 435.134C1721.27 439.421 1720.69 443.382 1719.53 447.015C1718.37 450.576 1716.62 453.664 1714.3 456.28C1712.05 458.823 1709.21 460.822 1705.8 462.275C1702.45 463.728 1698.53 464.455 1694.02 464.455C1689.52 464.455 1685.56 463.728 1682.14 462.275C1678.8 460.822 1675.97 458.823 1673.64 456.28C1671.39 453.664 1669.68 450.576 1668.52 447.015C1667.43 443.382 1666.88 439.421 1666.88 435.134C1666.88 430.847 1667.43 426.923 1668.52 423.362C1669.68 419.729 1671.39 416.604 1673.64 413.988C1675.97 411.372 1678.8 409.337 1682.14 407.884C1685.56 406.431 1689.52 405.704 1694.02 405.704ZM1694.02 458.351C1697.51 458.351 1700.53 457.77 1703.07 456.607C1705.61 455.372 1707.69 453.7 1709.28 451.593C1710.96 449.486 1712.15 447.015 1712.88 444.181C1713.68 441.347 1714.08 438.331 1714.08 435.134C1714.08 431.937 1713.68 428.921 1712.88 426.087C1712.15 423.253 1710.96 420.782 1709.28 418.675C1707.69 416.568 1705.61 414.896 1703.07 413.661C1700.53 412.426 1697.51 411.808 1694.02 411.808C1690.54 411.808 1687.52 412.426 1684.98 413.661C1682.43 414.896 1680.33 416.568 1678.65 418.675C1677.06 420.782 1675.86 423.253 1675.06 426.087C1674.33 428.921 1673.97 431.937 1673.97 435.134C1673.97 438.331 1674.33 441.347 1675.06 444.181C1675.86 447.015 1677.06 449.486 1678.65 451.593C1680.33 453.7 1682.43 455.372 1684.98 456.607C1687.52 457.77 1690.54 458.351 1694.02 458.351Z" fill="black"/>
<path d="M1609.13 406.357H1631.15C1633.33 406.357 1635.62 406.503 1638.02 406.793C1640.49 407.084 1642.7 407.702 1644.67 408.646C1646.7 409.591 1648.37 410.972 1649.68 412.788C1651.06 414.532 1651.79 416.894 1651.86 419.873C1651.93 422.635 1651.32 425.178 1650.01 427.503C1648.77 429.829 1646.77 431.682 1644.01 433.062C1647.5 433.789 1650.26 435.315 1652.3 437.64C1654.33 439.893 1655.35 443.09 1655.35 447.232C1655.35 450.43 1654.69 453.155 1653.39 455.407C1652.15 457.587 1650.48 459.331 1648.37 460.639C1646.63 461.802 1644.59 462.638 1642.27 463.146C1639.94 463.582 1637.58 463.8 1635.18 463.8H1609.13V406.357ZM1616.33 412.352V431.427H1630.93C1632.39 431.427 1634.09 431.282 1636.06 430.991C1638.02 430.628 1639.69 429.974 1641.07 429.029C1642.23 428.303 1643.18 427.358 1643.9 426.195C1644.63 424.96 1644.99 423.434 1644.99 421.617C1644.99 419.583 1644.56 417.948 1643.69 416.712C1642.89 415.477 1641.8 414.532 1640.42 413.878C1639.04 413.224 1637.51 412.825 1635.84 412.679C1634.17 412.461 1632.5 412.352 1630.82 412.352H1616.33ZM1616.33 457.805H1633.33C1635 457.805 1636.71 457.696 1638.45 457.478C1640.2 457.188 1641.76 456.715 1643.14 456.061C1644.59 455.335 1645.79 454.354 1646.74 453.118C1647.68 451.81 1648.15 450.103 1648.15 447.995C1648.15 445.525 1647.65 443.599 1646.63 442.218C1645.68 440.838 1644.41 439.784 1642.81 439.057C1641.22 438.331 1639.43 437.895 1637.47 437.749C1635.58 437.531 1633.69 437.422 1631.8 437.422H1616.33V457.805Z" fill="black"/>
<path d="M1503.86 406.357H1515.3L1534.27 437.531L1552.8 406.357H1564.03V463.8H1556.83V413.006L1535.47 449.194H1532.64L1511.05 413.115V463.8H1503.86V406.357Z" fill="black"/>
<path d="M1485.89 406.357H1494.18L1474.99 460.748C1474.41 462.42 1473.68 464.345 1472.81 466.525C1471.94 468.705 1470.96 470.885 1469.87 473.065C1468.85 475.245 1467.73 477.316 1466.49 479.278C1465.33 481.24 1464.13 482.803 1462.89 483.965C1460.57 486.291 1458.06 487.78 1455.37 488.434C1452.76 489.088 1449.6 489.415 1445.89 489.415V482.548C1447.2 482.548 1448.43 482.512 1449.6 482.439C1450.76 482.367 1451.81 482.149 1452.76 481.785C1454.35 481.277 1455.74 480.477 1456.9 479.387C1458.13 478.37 1459.22 477.207 1460.17 475.899C1461.11 474.591 1461.95 473.174 1462.68 471.648C1463.4 470.195 1464.06 468.742 1464.64 467.288L1438.7 406.357H1447.31L1468.78 458.132L1485.89 406.357Z" fill="black"/>
<path d="M1360.7 374.204C1360.7 391.601 1346.59 405.704 1329.2 405.704C1311.8 405.704 1297.7 391.601 1297.7 374.204C1297.7 356.807 1311.8 342.704 1329.2 342.704C1346.59 342.704 1360.7 356.807 1360.7 374.204Z" fill="black"/>
<path d="M1653 724.872L1654.07 722.051L1688.2 718.021L1684.03 729.573C1681.7 736.469 1680.72 742.469 1681.08 747.574C1681.43 752.589 1682.96 756.485 1685.64 759.261C1688.42 761.948 1692.14 763.291 1696.79 763.291C1700.91 763.291 1704.67 762.261 1708.08 760.201C1711.57 758.142 1714.84 754.828 1717.88 750.261C1720.93 745.604 1723.84 739.469 1726.61 731.857L1736.69 705.393C1739.2 698.408 1740.23 692.453 1739.78 687.527C1739.33 682.601 1737.58 678.885 1734.54 676.377C1731.5 673.87 1727.47 672.616 1722.45 672.616H1708.48L1724.06 630.301H1741.66C1746.5 630.301 1750.79 629.361 1754.56 627.48C1758.32 625.51 1761.72 622.375 1764.77 618.077C1767.9 613.778 1770.77 608.046 1773.36 600.882L1778.6 586.374C1780.84 579.657 1781.83 573.836 1781.56 568.911C1781.29 563.985 1779.99 560.224 1777.66 557.627C1775.33 555.03 1772.33 553.731 1768.66 553.731C1765.08 553.731 1761.63 554.85 1758.32 557.089C1755.09 559.328 1751.87 562.91 1748.65 567.836C1745.51 572.762 1742.38 579.21 1739.24 587.18L1737.09 592.956L1705.79 588.926C1713.23 569.851 1720.79 554.627 1728.5 543.253C1736.2 531.79 1744.17 523.64 1752.41 518.804C1760.74 513.879 1769.91 511.416 1779.94 511.416C1790.33 511.416 1798.84 514.55 1805.47 520.819C1812.18 526.999 1816.08 535.73 1817.16 547.014C1818.32 558.209 1816.3 571.06 1811.11 585.568L1809.36 590.135C1804.98 602.225 1800.05 612.211 1794.59 620.092C1789.12 627.973 1783.39 634.062 1777.39 638.361C1771.39 642.66 1764.99 645.794 1758.18 647.764L1755.23 655.959C1759.97 659.362 1763.74 663.616 1766.51 668.72C1769.29 673.825 1770.59 680.542 1770.41 688.87C1770.23 697.199 1768.08 707.229 1763.96 718.961L1760.06 729.708C1753.17 748.156 1746.05 762.933 1738.7 774.038C1731.45 785.143 1723.57 793.203 1715.06 798.218C1706.55 803.143 1696.93 805.606 1686.18 805.606C1674.81 805.606 1665.58 802.337 1658.51 795.8C1651.52 789.262 1647.45 779.904 1646.28 767.724C1645.12 755.544 1647.36 741.26 1653 724.872Z" fill="black"/>
<path d="M1620.75 729.708H1584.35L1548.88 802.248H1519.33L1664.14 514.774H1697.05L1631.63 802.248H1603.02L1620.75 729.708ZM1620.08 657.033L1602.88 691.691H1630.15L1638.48 656.899C1642.87 641.137 1647.84 622.51 1653.39 601.016H1646C1634.99 624.928 1626.35 643.6 1620.08 657.033Z" fill="black"/>
<path d="M1438.7 802.248L1543.88 514.774H1581.49C1592.51 514.774 1601.06 517.775 1607.15 523.775C1613.33 529.685 1616.64 538.328 1617.09 549.701C1617.54 560.985 1614.9 574.598 1609.16 590.538L1598.42 619.151C1592.15 636.077 1585.52 649.69 1578.54 659.989C1571.55 670.198 1563.71 677.631 1555.03 682.288C1546.34 686.945 1536.27 689.273 1524.8 689.273H1508.15L1466.77 802.248H1438.7ZM1539.71 646.958C1544.73 646.958 1549.12 645.929 1552.88 643.869C1556.73 641.809 1560.22 638.406 1563.36 633.659C1566.58 628.823 1569.72 622.331 1572.76 614.181L1581.63 589.867C1584.13 582.792 1585.3 576.792 1585.12 571.866C1584.94 566.941 1583.51 563.269 1580.82 560.851C1578.22 558.343 1574.55 557.089 1569.8 557.089H1556.51L1523.59 646.958H1539.71Z" fill="black"/>
<path d="M5102.8 2582.8H5095.71V2560.56H5080.23L5065.52 2582.8H5057.02L5072.82 2559.58C5068.32 2558.78 5064.68 2557 5061.92 2554.24C5059.16 2551.41 5057.78 2547.63 5057.78 2542.91C5057.78 2539.2 5058.4 2536.22 5059.63 2533.97C5060.87 2531.72 5062.54 2529.9 5064.65 2528.52C5066.68 2527.21 5068.97 2526.37 5071.51 2526.01C5074.13 2525.58 5076.96 2525.36 5080.01 2525.36H5102.8V2582.8ZM5095.71 2531.35H5081.32C5079 2531.35 5076.78 2531.46 5074.67 2531.68C5072.57 2531.9 5070.86 2532.41 5069.55 2533.21C5068.32 2534 5067.23 2535.17 5066.28 2536.69C5065.41 2538.15 5064.97 2540.04 5064.97 2542.36C5064.97 2544.4 5065.3 2546.18 5065.95 2547.7C5066.68 2549.16 5067.62 2550.32 5068.79 2551.19C5069.88 2551.99 5071.04 2552.64 5072.28 2553.15C5073.58 2553.59 5074.93 2553.92 5076.31 2554.13C5077.76 2554.35 5079.18 2554.5 5080.56 2554.57C5081.94 2554.57 5083.28 2554.57 5084.59 2554.57H5095.71V2531.35Z" fill="black"/>
<path d="M5024.58 2583.46C5020.07 2583.46 5016.15 2582.73 5012.81 2581.28C5009.46 2579.82 5006.67 2577.79 5004.41 2575.17C5002.16 2572.56 5000.45 2569.47 4999.29 2565.91C4998.2 2562.35 4997.66 2558.46 4997.66 2554.24C4997.66 2549.88 4998.24 2545.92 4999.4 2542.36C5000.56 2538.73 5002.31 2535.6 5004.63 2532.99C5006.96 2530.37 5009.83 2528.34 5013.24 2526.88C5016.66 2525.43 5020.62 2524.7 5025.12 2524.7C5030.36 2524.7 5034.93 2525.98 5038.86 2528.52C5042.85 2531.06 5045.54 2534.95 5046.92 2540.18H5039.62C5038.6 2536.98 5036.68 2534.62 5033.84 2533.1C5031.08 2531.57 5028.03 2530.81 5024.69 2530.81C5021.27 2530.81 5018.29 2531.43 5015.75 2532.66C5013.28 2533.9 5011.21 2535.6 5009.54 2537.78C5007.94 2539.89 5006.74 2542.36 5005.94 2545.2C5005.14 2548.03 5004.74 2551.05 5004.74 2554.24C5004.74 2557.37 5005.14 2560.35 5005.94 2563.18C5006.74 2565.94 5007.94 2568.38 5009.54 2570.48C5011.21 2572.59 5013.32 2574.26 5015.86 2575.5C5018.48 2576.73 5021.53 2577.35 5025.02 2577.35C5028.5 2577.35 5031.63 2576.7 5034.39 2575.39C5037.15 2574.08 5039.15 2571.65 5040.38 2568.09H5047.8C5047 2570.77 5045.83 2573.1 5044.31 2575.06C5042.78 2576.95 5040.97 2578.55 5038.86 2579.86C5036.82 2581.09 5034.57 2582 5032.1 2582.58C5029.63 2583.16 5027.12 2583.46 5024.58 2583.46Z" fill="black"/>
<path d="M4990.71 2525.36V2531.35H4970.11V2582.8H4962.91V2531.35H4942.31V2525.36H4990.71Z" fill="black"/>
<path d="M4890.84 2556.42C4890.99 2559.48 4891.5 2562.27 4892.37 2564.82C4893.31 2567.36 4894.62 2569.58 4896.29 2571.47C4897.96 2573.28 4900 2574.74 4902.4 2575.83C4904.87 2576.84 4907.74 2577.35 4911.01 2577.35C4912.53 2577.35 4914.06 2577.21 4915.59 2576.92C4917.18 2576.62 4918.67 2576.19 4920.05 2575.61C4921.51 2574.95 4922.82 2574.12 4923.98 2573.1C4925.14 2572.08 4926.05 2570.81 4926.7 2569.29H4934.22C4933.43 2571.83 4932.19 2574.01 4930.52 2575.83C4928.92 2577.64 4927.07 2579.13 4924.96 2580.29C4922.85 2581.38 4920.56 2582.18 4918.09 2582.69C4915.62 2583.2 4913.15 2583.46 4910.68 2583.46C4906.18 2583.46 4902.22 2582.73 4898.8 2581.28C4895.46 2579.82 4892.66 2577.82 4890.41 2575.28C4888.15 2572.66 4886.48 2569.58 4885.39 2566.02C4884.3 2562.38 4883.76 2558.42 4883.76 2554.13C4883.76 2549.77 4884.34 2545.78 4885.5 2542.14C4886.66 2538.51 4888.37 2535.42 4890.62 2532.88C4892.95 2530.26 4895.78 2528.26 4899.13 2526.88C4902.54 2525.43 4906.43 2524.7 4910.79 2524.7C4915.37 2524.7 4919.22 2525.61 4922.34 2527.43C4925.54 2529.25 4928.12 2531.64 4930.08 2534.62C4932.04 2537.53 4933.43 2540.91 4934.22 2544.76C4935.1 2548.54 4935.46 2552.43 4935.31 2556.42H4890.84ZM4928.01 2550.43C4927.94 2547.81 4927.5 2545.31 4926.7 2542.91C4925.98 2540.51 4924.85 2538.44 4923.32 2536.69C4921.87 2534.88 4920.02 2533.46 4917.77 2532.44C4915.51 2531.35 4912.9 2530.81 4909.92 2530.81C4906.94 2530.81 4904.29 2531.35 4901.96 2532.44C4899.71 2533.53 4897.78 2534.99 4896.18 2536.8C4894.59 2538.62 4893.35 2540.73 4892.48 2543.13C4891.61 2545.45 4891.1 2547.88 4890.95 2550.43H4928.01Z" fill="black"/>
<path d="M4867.97 2525.36H4876.25L4857.07 2579.75C4856.49 2581.42 4855.76 2583.35 4854.89 2585.53C4854.02 2587.71 4853.04 2589.89 4851.95 2592.07C4850.93 2594.25 4849.8 2596.32 4848.57 2598.28C4847.41 2600.24 4846.21 2601.8 4844.97 2602.97C4842.65 2605.29 4840.14 2606.78 4837.45 2607.43C4834.83 2608.09 4831.67 2608.42 4827.97 2608.42V2601.55C4829.28 2601.55 4830.51 2601.51 4831.67 2601.44C4832.84 2601.37 4833.89 2601.15 4834.83 2600.79C4836.43 2600.28 4837.81 2599.48 4838.98 2598.39C4840.21 2597.37 4841.3 2596.21 4842.25 2594.9C4843.19 2593.59 4844.03 2592.17 4844.75 2590.65C4845.48 2589.2 4846.13 2587.74 4846.72 2586.29L4820.77 2525.36H4829.38L4850.86 2577.13L4867.97 2525.36Z" fill="black"/>
<path d="M4763.63 2582.8V2525.36H4770.83V2551.63H4803.31V2525.36H4810.5V2582.8H4803.31V2557.62H4770.83V2582.8H4763.63Z" fill="black"/>
<path d="M4747.9 2525.36V2582.8H4740.71V2531.35H4715.86C4715.78 2533.39 4715.71 2535.46 4715.64 2537.57L4715.09 2549.66C4715.02 2551.7 4714.95 2553.77 4714.87 2555.88C4714.73 2557.77 4714.55 2559.77 4714.33 2561.87C4714.18 2563.98 4713.89 2566.09 4713.46 2568.19C4713.02 2570.23 4712.4 2572.19 4711.6 2574.08C4710.8 2575.97 4709.71 2577.6 4708.33 2578.99C4706.59 2580.73 4704.77 2581.89 4702.88 2582.47C4700.99 2582.98 4698.85 2583.24 4696.45 2583.24V2576.48C4698.63 2576.33 4700.41 2575.72 4701.79 2574.63C4703.25 2573.46 4704.37 2571.94 4705.17 2570.05C4706.12 2567.72 4706.74 2565.18 4707.03 2562.42C4707.39 2559.58 4707.64 2557.19 4707.79 2555.22C4708.15 2550.21 4708.37 2545.23 4708.44 2540.29C4708.59 2535.35 4708.73 2530.37 4708.88 2525.36H4747.9Z" fill="black"/>
<path d="M4661.5 2524.7C4666.01 2524.7 4669.93 2525.43 4673.27 2526.88C4676.69 2528.34 4679.52 2530.37 4681.77 2532.99C4684.1 2535.6 4685.84 2538.73 4687.01 2542.36C4688.17 2545.92 4688.75 2549.85 4688.75 2554.13C4688.75 2558.42 4688.17 2562.38 4687.01 2566.02C4685.84 2569.58 4684.1 2572.66 4681.77 2575.28C4679.52 2577.82 4676.69 2579.82 4673.27 2581.28C4669.93 2582.73 4666.01 2583.46 4661.5 2583.46C4657 2583.46 4653.03 2582.73 4649.62 2581.28C4646.28 2579.82 4643.44 2577.82 4641.12 2575.28C4638.86 2572.66 4637.16 2569.58 4635.99 2566.02C4634.9 2562.38 4634.36 2558.42 4634.36 2554.13C4634.36 2549.85 4634.9 2545.92 4635.99 2542.36C4637.16 2538.73 4638.86 2535.6 4641.12 2532.99C4643.44 2530.37 4646.28 2528.34 4649.62 2526.88C4653.03 2525.43 4657 2524.7 4661.5 2524.7ZM4661.5 2577.35C4664.99 2577.35 4668 2576.77 4670.55 2575.61C4673.09 2574.37 4675.16 2572.7 4676.76 2570.59C4678.43 2568.49 4679.63 2566.02 4680.36 2563.18C4681.16 2560.35 4681.56 2557.33 4681.56 2554.13C4681.56 2550.94 4681.16 2547.92 4680.36 2545.09C4679.63 2542.25 4678.43 2539.78 4676.76 2537.68C4675.16 2535.57 4673.09 2533.9 4670.55 2532.66C4668 2531.43 4664.99 2530.81 4661.5 2530.81C4658.01 2530.81 4655 2531.43 4652.45 2532.66C4649.91 2533.9 4647.8 2535.57 4646.13 2537.68C4644.53 2539.78 4643.33 2542.25 4642.53 2545.09C4641.81 2547.92 4641.44 2550.94 4641.44 2554.13C4641.44 2557.33 4641.81 2560.35 4642.53 2563.18C4643.33 2566.02 4644.53 2568.49 4646.13 2570.59C4647.8 2572.7 4649.91 2574.37 4652.45 2575.61C4655 2576.77 4658.01 2577.35 4661.5 2577.35Z" fill="black"/>
<path d="M4576.61 2525.36H4598.63C4600.81 2525.36 4603.1 2525.5 4605.49 2525.79C4607.97 2526.08 4610.18 2526.7 4612.14 2527.65C4614.18 2528.59 4615.85 2529.97 4617.16 2531.79C4618.54 2533.53 4619.26 2535.89 4619.34 2538.87C4619.41 2541.63 4618.79 2544.18 4617.48 2546.5C4616.25 2548.83 4614.25 2550.68 4611.49 2552.06C4614.98 2552.79 4617.74 2554.32 4619.77 2556.64C4621.81 2558.89 4622.83 2562.09 4622.83 2566.23C4622.83 2569.43 4622.17 2572.15 4620.86 2574.41C4619.63 2576.59 4617.96 2578.33 4615.85 2579.64C4614.11 2580.8 4612.07 2581.64 4609.75 2582.15C4607.42 2582.58 4605.06 2582.8 4602.66 2582.8H4576.61V2525.36ZM4583.8 2531.35V2550.43H4598.41C4599.86 2550.43 4601.57 2550.28 4603.53 2549.99C4605.49 2549.63 4607.17 2548.97 4608.55 2548.03C4609.71 2547.3 4610.65 2546.36 4611.38 2545.2C4612.11 2543.96 4612.47 2542.43 4612.47 2540.62C4612.47 2538.58 4612.03 2536.95 4611.16 2535.71C4610.36 2534.48 4609.27 2533.53 4607.89 2532.88C4606.51 2532.22 4604.99 2531.82 4603.31 2531.68C4601.64 2531.46 4599.97 2531.35 4598.3 2531.35H4583.8ZM4583.8 2576.81H4600.81C4602.48 2576.81 4604.19 2576.7 4605.93 2576.48C4607.67 2576.19 4609.24 2575.72 4610.62 2575.06C4612.07 2574.33 4613.27 2573.35 4614.21 2572.12C4615.16 2570.81 4615.63 2569.1 4615.63 2567C4615.63 2564.52 4615.12 2562.6 4614.11 2561.22C4613.16 2559.84 4611.89 2558.78 4610.29 2558.06C4608.69 2557.33 4606.91 2556.89 4604.95 2556.75C4603.06 2556.53 4601.17 2556.42 4599.28 2556.42H4583.8V2576.81Z" fill="black"/>
<path d="M4506.52 2524.7C4511.02 2524.7 4514.95 2525.43 4518.29 2526.88C4521.7 2528.34 4524.54 2530.37 4526.79 2532.99C4529.12 2535.6 4530.86 2538.73 4532.02 2542.36C4533.18 2545.92 4533.77 2549.85 4533.77 2554.13C4533.77 2558.42 4533.18 2562.38 4532.02 2566.02C4530.86 2569.58 4529.12 2572.66 4526.79 2575.28C4524.54 2577.82 4521.7 2579.82 4518.29 2581.28C4514.95 2582.73 4511.02 2583.46 4506.52 2583.46C4502.01 2583.46 4498.05 2582.73 4494.63 2581.28C4491.29 2579.82 4488.46 2577.82 4486.13 2575.28C4483.88 2572.66 4482.17 2569.58 4481.01 2566.02C4479.92 2562.38 4479.38 2558.42 4479.38 2554.13C4479.38 2549.85 4479.92 2545.92 4481.01 2542.36C4482.17 2538.73 4483.88 2535.6 4486.13 2532.99C4488.46 2530.37 4491.29 2528.34 4494.63 2526.88C4498.05 2525.43 4502.01 2524.7 4506.52 2524.7ZM4506.52 2577.35C4510 2577.35 4513.02 2576.77 4515.56 2575.61C4518.11 2574.37 4520.18 2572.7 4521.78 2570.59C4523.45 2568.49 4524.65 2566.02 4525.37 2563.18C4526.17 2560.35 4526.57 2557.33 4526.57 2554.13C4526.57 2550.94 4526.17 2547.92 4525.37 2545.09C4524.65 2542.25 4523.45 2539.78 4521.78 2537.68C4520.18 2535.57 4518.11 2533.9 4515.56 2532.66C4513.02 2531.43 4510 2530.81 4506.52 2530.81C4503.03 2530.81 4500.01 2531.43 4497.47 2532.66C4494.93 2533.9 4492.82 2535.57 4491.15 2537.68C4489.55 2539.78 4488.35 2542.25 4487.55 2545.09C4486.82 2547.92 4486.46 2550.94 4486.46 2554.13C4486.46 2557.33 4486.82 2560.35 4487.55 2563.18C4488.35 2566.02 4489.55 2568.49 4491.15 2570.59C4492.82 2572.7 4494.93 2574.37 4497.47 2575.61C4500.01 2576.77 4503.03 2577.35 4506.52 2577.35Z" fill="black"/>
<path d="M4465.82 2525.36V2582.8H4458.62V2531.35H4433.77C4433.7 2533.39 4433.62 2535.46 4433.55 2537.57L4433.01 2549.66C4432.93 2551.7 4432.86 2553.77 4432.79 2555.88C4432.64 2557.77 4432.46 2559.77 4432.24 2561.87C4432.1 2563.98 4431.81 2566.09 4431.37 2568.19C4430.94 2570.23 4430.32 2572.19 4429.52 2574.08C4428.72 2575.97 4427.63 2577.6 4426.25 2578.99C4424.5 2580.73 4422.69 2581.89 4420.8 2582.47C4418.91 2582.98 4416.77 2583.24 4414.37 2583.24V2576.48C4416.55 2576.33 4418.33 2575.72 4419.71 2574.63C4421.16 2573.46 4422.29 2571.94 4423.09 2570.05C4424.03 2567.72 4424.65 2565.18 4424.94 2562.42C4425.3 2559.58 4425.56 2557.19 4425.7 2555.22C4426.07 2550.21 4426.28 2545.23 4426.36 2540.29C4426.5 2535.35 4426.65 2530.37 4426.79 2525.36H4465.82Z" fill="black"/>
<path d="M4362.13 2556.42C4362.28 2559.48 4362.79 2562.27 4363.66 2564.82C4364.6 2567.36 4365.91 2569.58 4367.58 2571.47C4369.25 2573.28 4371.29 2574.74 4373.69 2575.83C4376.16 2576.84 4379.03 2577.35 4382.3 2577.35C4383.82 2577.35 4385.35 2577.21 4386.87 2576.92C4388.47 2576.62 4389.96 2576.19 4391.34 2575.61C4392.8 2574.95 4394.11 2574.12 4395.27 2573.1C4396.43 2572.08 4397.34 2570.81 4397.99 2569.29H4405.51C4404.71 2571.83 4403.48 2574.01 4401.81 2575.83C4400.21 2577.64 4398.36 2579.13 4396.25 2580.29C4394.14 2581.38 4391.85 2582.18 4389.38 2582.69C4386.91 2583.2 4384.44 2583.46 4381.97 2583.46C4377.46 2583.46 4373.5 2582.73 4370.09 2581.28C4366.75 2579.82 4363.95 2577.82 4361.7 2575.28C4359.44 2572.66 4357.77 2569.58 4356.68 2566.02C4355.59 2562.38 4355.05 2558.42 4355.05 2554.13C4355.05 2549.77 4355.63 2545.78 4356.79 2542.14C4357.95 2538.51 4359.66 2535.42 4361.91 2532.88C4364.24 2530.26 4367.07 2528.26 4370.42 2526.88C4373.83 2525.43 4377.72 2524.7 4382.08 2524.7C4386.66 2524.7 4390.51 2525.61 4393.63 2527.43C4396.83 2529.25 4399.41 2531.64 4401.37 2534.62C4403.33 2537.53 4404.71 2540.91 4405.51 2544.76C4406.39 2548.54 4406.75 2552.43 4406.6 2556.42H4362.13ZM4399.3 2550.43C4399.23 2547.81 4398.79 2545.31 4397.99 2542.91C4397.27 2540.51 4396.14 2538.44 4394.61 2536.69C4393.16 2534.88 4391.31 2533.46 4389.05 2532.44C4386.8 2531.35 4384.19 2530.81 4381.21 2530.81C4378.23 2530.81 4375.58 2531.35 4373.25 2532.44C4371 2533.53 4369.07 2534.99 4367.47 2536.8C4365.87 2538.62 4364.64 2540.73 4363.77 2543.13C4362.89 2545.45 4362.39 2547.88 4362.24 2550.43H4399.3Z" fill="black"/>
<path d="M4348.09 2525.36V2531.35H4327.49V2582.8H4320.3V2531.35H4299.7V2525.36H4348.09Z" fill="black"/>
<path d="M4221.7 2493.2C4221.7 2510.6 4207.59 2524.7 4190.2 2524.7C4172.8 2524.7 4158.7 2510.6 4158.7 2493.2C4158.7 2475.81 4172.8 2461.7 4190.2 2461.7C4207.59 2461.7 4221.7 2475.81 4221.7 2493.2Z" fill="black"/>
<path d="M4589.48 2917.89H4563.02L4594.18 2833.26C4603.41 2808.54 4616.26 2777.38 4632.74 2739.76H4625.35L4524.46 2917.89H4495.98L4601.17 2630.42H4627.63L4596.73 2714.11C4591.09 2729.33 4585.32 2744.06 4579.41 2758.3C4573.58 2772.54 4566.78 2788.35 4558.99 2805.72H4566.38L4665.65 2630.42H4694.66L4589.48 2917.89Z" fill="black"/>
<path d="M4382.44 2917.89L4487.62 2630.42H4525.23C4536.25 2630.42 4544.8 2633.42 4550.89 2639.42C4557.07 2645.33 4560.38 2653.97 4560.83 2665.34C4561.28 2676.63 4558.64 2690.24 4552.91 2706.18L4542.16 2734.79C4535.89 2751.72 4529.26 2765.33 4522.28 2775.63C4515.29 2785.84 4507.46 2793.27 4498.77 2797.93C4490.08 2802.59 4480.01 2804.92 4468.55 2804.92H4451.89L4410.51 2917.89H4382.44ZM4483.46 2762.6C4488.47 2762.6 4492.86 2761.57 4496.62 2759.51C4500.47 2757.45 4503.96 2754.05 4507.1 2749.3C4510.32 2744.47 4513.46 2737.97 4516.5 2729.82L4525.37 2705.51C4527.88 2698.43 4529.04 2692.43 4528.86 2687.51C4528.68 2682.58 4527.25 2678.91 4524.56 2676.49C4521.97 2673.98 4518.29 2672.73 4513.55 2672.73H4500.25L4467.34 2762.6H4483.46Z" fill="black"/>
<path d="M4299.7 2917.89L4389.3 2672.73H4355.58L4371.03 2630.42H4466.54L4451.09 2672.73H4417.37L4327.64 2917.89H4299.7Z" fill="black"/>
<path d="M2397.31 1705.88L2393.7 1703.21L2396.86 1705.55C2397.3 1705.89 2397.3 1705.9 2397.29 1705.91C2397.28 1705.93 2397.26 1705.96 2397.23 1705.99C2397.17 1706.07 2397.09 1706.18 2396.98 1706.33C2396.76 1706.63 2396.42 1707.09 2395.98 1707.68C2395.1 1708.88 2393.79 1710.67 2392.06 1713.03C2388.62 1717.74 2383.52 1724.72 2376.95 1733.81C2363.8 1751.98 2344.72 1778.57 2321.03 1812.21C2273.66 1879.48 2207.83 1974.96 2134.02 2087.73C2129.72 2094.31 2125.39 2100.94 2121.03 2107.64C2299.08 2108.5 2491.57 2125.24 2685.04 2151.29C3061.26 2201.94 3441.77 2287.85 3728.17 2361.08C3871.39 2397.7 3991.09 2431.15 4075 2455.45C4116.96 2467.61 4149.96 2477.47 4172.48 2484.29C4183.74 2487.71 4192.38 2490.36 4198.21 2492.16C4201.12 2493.06 4203.33 2493.75 4204.81 2494.21C4205.56 2494.44 4206.11 2494.62 4206.49 2494.74C4206.68 2494.79 4206.82 2494.84 4206.91 2494.87C4206.96 2494.88 4207 2494.89 4207.02 2494.9C4207.04 2494.91 4207.05 2494.94 4205.7 2499.21C4204.36 2503.47 4204.34 2503.49 4204.32 2503.49C4204.3 2503.48 4204.26 2503.47 4204.21 2503.45C4204.12 2503.43 4203.98 2503.38 4203.8 2503.32C4203.43 2503.21 4202.87 2503.03 4202.13 2502.8C4200.66 2502.34 4198.46 2501.66 4195.55 2500.76C4189.74 2498.96 4181.12 2496.31 4169.87 2492.91C4147.39 2486.09 4114.42 2476.24 4072.5 2464.1C3988.67 2439.82 3869.05 2406.39 3725.94 2369.8C3439.71 2296.61 3059.58 2210.79 2683.84 2160.21C2488.36 2133.89 2294.22 2117.14 2115.19 2116.62C1971.36 2338.12 1801.57 2619.64 1679.45 2884.62C1643.01 2963.67 1610.85 3041.2 1584.88 3115.18C1679.91 3190.5 1785.11 3257.13 1883.74 3315.78C2015.92 3394.39 2136.81 3458.95 2204.42 3510.59C2221.38 3523.54 2235.18 3535.82 2245.04 3547.46C2254.85 3559.03 2261.12 3570.38 2262.28 3581.45C2263.47 3592.84 2259.17 3603.17 2249.53 3612.25C2240.05 3621.17 2225.32 3629 2205.17 3635.96C1997.16 3707.8 1843.51 3731.75 1734.06 3718.13C1624.26 3704.47 1558.68 3652.92 1527.94 3574.21C1497.39 3495.99 1501.52 3391.68 1528.96 3272.79C1540.3 3223.62 1555.66 3171.85 1574.27 3118.25C1543.25 3093.47 1513.33 3067.74 1485.09 3041.05C1368.74 2931.05 1280.61 2804.2 1262.73 2658.76C1245.26 2516.71 1278.41 2407.16 1350.25 2324.59C1421.95 2242.19 1531.76 2187.18 1666.73 2153.17C1794.98 2120.86 1946.37 2107.4 2110.31 2107.6C2115.75 2099.25 2121.14 2090.98 2126.49 2082.8C2200.36 1969.93 2266.25 1874.37 2313.67 1807.03C2337.39 1773.35 2356.48 1746.74 2369.65 1728.53C2375.93 1719.86 2380.86 1713.1 2384.3 1708.4L113.024 1873.2L112.373 1864.22L2403.14 1698.01L2397.31 1705.88ZM1581.74 3124.18C1563.68 3176.45 1548.78 3226.9 1537.72 3274.81C1510.42 3393.13 1506.77 3495.26 1536.32 3570.93C1565.68 3646.1 1628.11 3695.88 1735.17 3709.2C1842.59 3722.56 1994.68 3699.13 2202.23 3627.45C2221.88 3620.66 2235.23 3613.35 2243.36 3605.7C2251.33 3598.19 2254.18 3590.51 2253.33 3582.38C2252.45 3573.93 2247.5 3564.27 2238.18 3553.27C2228.91 3542.34 2215.67 3530.51 2198.96 3517.74C2131.9 3466.52 2012.04 3402.55 1879.14 3323.51C1781.28 3265.32 1676.64 3199.1 1581.74 3124.18ZM2104.47 2116.6C1943.37 2116.72 1794.82 2130.18 1668.93 2161.9C1534.91 2195.67 1427.07 2250.01 1357.04 2330.5C1287.13 2410.84 1254.46 2517.73 1271.66 2657.66C1289.18 2800.13 1375.63 2925.18 1491.28 3034.51C1518.57 3060.31 1547.46 3085.22 1577.43 3109.24C1603.34 3035.79 1635.25 2959.01 1671.27 2880.85C1792.76 2617.25 1961.22 2337.5 2104.47 2116.6Z" fill="black"/>
<path d="M2339.87 499.817L3147.53 349.135C3230.24 268.305 3356.27 212.267 3498.32 173.55C3641.03 134.653 3800.42 113.103 3949.42 101.641C4098.43 90.1768 4237.19 88.7951 4338.68 90.2777C4389.43 91.0189 4430.87 92.4766 4459.63 93.7494C4474.01 94.3858 4485.22 94.9763 4492.84 95.4076C4496.65 95.6232 4499.56 95.7986 4501.52 95.9208C4502.5 95.9819 4503.25 96.0298 4503.74 96.0622C4503.99 96.0784 4504.18 96.0908 4504.31 96.0992C4504.37 96.1034 4504.42 96.1065 4504.45 96.1087C4504.47 96.1098 4504.48 96.1104 4504.49 96.1109C4504.5 96.1116 4504.5 96.1224 4504.2 100.602L4504.5 96.1124L4505.02 105.026L3151.88 357.48C3071.01 437.331 3046.91 496.968 3053.95 541.234C3061 585.568 3099.68 616.78 3150.17 638.653C3200.45 660.432 3261.05 672.32 3309.27 678.749C3333.34 681.959 3354.25 683.798 3369.14 684.835C3376.58 685.353 3382.51 685.671 3386.58 685.859C3388.61 685.953 3390.18 686.015 3391.23 686.052C3391.76 686.071 3392.16 686.084 3392.43 686.092C3392.56 686.096 3392.66 686.1 3392.72 686.102C3392.76 686.102 3392.78 686.103 3392.8 686.103C3392.8 686.103 3392.81 686.103 3392.81 686.103C3392.82 686.105 3392.81 686.198 3392.7 690.602C3392.58 695.101 3392.57 695.101 3392.57 695.1C3392.56 695.1 3392.56 695.1 3392.55 695.1C3392.53 695.1 3392.5 695.099 3392.46 695.098C3392.39 695.095 3392.29 695.093 3392.15 695.088C3391.87 695.08 3391.45 695.065 3390.91 695.046C3389.83 695.007 3388.23 694.945 3386.16 694.85C3382.03 694.659 3376.03 694.337 3368.51 693.813C3353.48 692.766 3332.38 690.91 3308.08 687.671C3259.56 681.202 3198 669.18 3146.6 646.911C3095.4 624.737 3052.87 591.762 3045.06 542.648C3037.6 495.743 3062.18 436.226 3136.29 360.389L2341.52 508.665L2339.87 499.817ZM4466.44 103.069C4464.14 102.962 4461.73 102.851 4459.23 102.741C4430.55 101.471 4389.2 100.017 4338.55 99.2769C4237.24 97.7971 4098.77 99.1776 3950.11 110.615C3801.42 122.053 3642.65 143.542 3500.69 182.234C3364.9 219.242 3244.97 271.869 3163.85 346.091L4466.44 103.069Z" fill="black"/>
<path d="M2907.7 1694.2C2907.7 1711.6 2893.59 1725.7 2876.2 1725.7C2858.8 1725.7 2844.7 1711.6 2844.7 1694.2C2844.7 1676.81 2858.8 1662.7 2876.2 1662.7C2893.59 1662.7 2907.7 1676.81 2907.7 1694.2Z" fill="black"/>
<path d="M1053.91 1971.28C1051.14 1974.63 1047.98 1976.95 1044.42 1978.26C1040.93 1979.57 1037.08 1980.22 1032.87 1980.22C1030.33 1980.22 1027.85 1979.93 1025.46 1979.35C1023.13 1978.7 1021.02 1977.68 1019.13 1976.3C1017.25 1974.92 1015.72 1973.17 1014.56 1971.07C1013.47 1968.89 1012.92 1966.45 1012.92 1963.76C1012.92 1960.49 1013.54 1957.77 1014.77 1955.59C1016.01 1953.41 1017.61 1951.66 1019.57 1950.36C1021.61 1949.05 1023.93 1948.14 1026.55 1947.63C1029.16 1947.05 1031.89 1946.76 1034.72 1946.76H1053.58C1053.58 1944.14 1053.29 1941.67 1052.71 1939.35C1052.2 1937.02 1051.33 1934.99 1050.09 1933.24C1048.86 1931.5 1047.22 1930.12 1045.19 1929.1C1043.22 1928.08 1040.79 1927.58 1037.88 1927.58C1036.5 1927.58 1035.09 1927.68 1033.63 1927.9C1032.25 1928.12 1030.91 1928.48 1029.6 1928.99C1028.36 1929.5 1027.2 1930.23 1026.11 1931.17C1025.09 1932.04 1024.26 1933.13 1023.6 1934.44H1015.76C1016.41 1932.04 1017.5 1930.05 1019.03 1928.45C1020.55 1926.78 1022.33 1925.43 1024.37 1924.41C1026.47 1923.32 1028.69 1922.56 1031.02 1922.13C1033.41 1921.69 1035.78 1921.47 1038.1 1921.47C1042.32 1921.47 1045.88 1922.16 1048.78 1923.54C1051.69 1924.92 1054.01 1926.85 1055.76 1929.32C1057.58 1931.72 1058.85 1934.55 1059.57 1937.82C1060.37 1941.09 1060.77 1944.62 1060.77 1948.39V1979.57H1054.89L1053.91 1971.28ZM1038.43 1952.54C1036.54 1952.54 1034.5 1952.61 1032.32 1952.75C1030.22 1952.9 1028.25 1953.34 1026.44 1954.06C1024.62 1954.72 1023.1 1955.77 1021.86 1957.22C1020.7 1958.6 1020.12 1960.53 1020.12 1963C1020.12 1964.96 1020.48 1966.63 1021.21 1968.01C1022.01 1969.4 1023.02 1970.56 1024.26 1971.5C1025.57 1972.45 1027.02 1973.14 1028.62 1973.57C1030.29 1974.01 1032 1974.23 1033.74 1974.23C1036.57 1974.23 1039.19 1973.86 1041.59 1973.14C1044.06 1972.41 1046.17 1971.32 1047.91 1969.87C1049.73 1968.34 1051.11 1966.49 1052.05 1964.31C1053.07 1962.06 1053.58 1959.44 1053.58 1956.46V1952.54H1038.43Z" fill="black"/>
<path d="M955.655 2001.04H948.461V1922.13H955.655V1931.94C957.399 1929.25 959.579 1927.03 962.195 1925.29C964.375 1923.91 966.628 1922.93 968.953 1922.34C971.351 1921.76 973.931 1921.47 976.692 1921.47C981.197 1921.47 985.049 1922.31 988.246 1923.98C991.443 1925.65 994.059 1927.9 996.094 1930.74C998.129 1933.57 999.582 1936.88 1000.45 1940.66C1001.33 1944.36 1001.73 1948.25 1001.65 1952.32C1001.51 1957.26 1000.64 1961.73 999.037 1965.73C997.511 1969.72 995.113 1972.96 991.843 1975.43C989.881 1976.95 987.519 1978.15 984.758 1979.02C982.069 1979.82 979.09 1980.22 975.82 1980.22C973.931 1980.22 972.041 1980.08 970.152 1979.79C968.263 1979.57 966.482 1979.13 964.811 1978.48C963.14 1977.75 961.468 1976.84 959.797 1975.75C958.198 1974.59 956.818 1973.1 955.655 1971.28V2001.04ZM975.384 1974.12C978.799 1974.12 981.706 1973.5 984.104 1972.27C986.502 1971.03 988.464 1969.36 989.99 1967.25C991.516 1965.07 992.642 1962.6 993.369 1959.84C994.096 1957.01 994.459 1954.06 994.459 1951.01C994.459 1947.89 994.096 1944.91 993.369 1942.07C992.715 1939.17 991.625 1936.66 990.099 1934.55C988.573 1932.44 986.575 1930.77 984.104 1929.54C981.706 1928.23 978.727 1927.58 975.166 1927.58C971.969 1927.58 969.062 1928.3 966.446 1929.76C963.903 1931.14 961.795 1932.95 960.124 1935.21C958.453 1937.31 957.254 1939.75 956.527 1942.51C955.8 1945.2 955.437 1948.03 955.437 1951.01C955.437 1954.57 955.982 1958.13 957.072 1961.69C958.235 1965.25 960.306 1968.16 963.285 1970.41C966.628 1972.88 970.661 1974.12 975.384 1974.12Z" fill="black"/>
<path d="M930.486 1922.12H938.77L919.586 1976.52C919.005 1978.19 918.278 1980.11 917.406 1982.29C916.534 1984.47 915.553 1986.65 914.463 1988.83C913.446 1991.01 912.319 1993.08 911.084 1995.05C909.921 1997.01 908.722 1998.57 907.487 1999.73C905.162 2002.06 902.655 2003.55 899.966 2004.2C897.35 2004.86 894.189 2005.18 890.483 2005.18V1998.32C891.791 1998.32 893.026 1998.28 894.189 1998.21C895.352 1998.13 896.405 1997.92 897.35 1997.55C898.949 1997.04 900.329 1996.24 901.492 1995.15C902.727 1994.14 903.817 1992.97 904.762 1991.67C905.707 1990.36 906.542 1988.94 907.269 1987.42C907.996 1985.96 908.65 1984.51 909.231 1983.06L883.289 1922.12H891.9L913.373 1973.9L930.486 1922.12Z" fill="black"/>
<path d="M838.93 1979.57V1922.12H877.843V1928.12H846.124V1979.57H838.93Z" fill="black"/>
<path d="M784.661 1979.57H774.633V1922.12H781.827V1971.61L813.328 1922.12H823.247V1979.57H816.053V1930.52L784.661 1979.57Z" fill="black"/>
<path d="M723.041 1903.7H730.235V1921.47C735.031 1921.54 739.354 1922.23 743.206 1923.54C747.057 1924.78 750.327 1926.63 753.016 1929.1C755.777 1931.57 757.884 1934.66 759.338 1938.37C760.791 1942.07 761.518 1946.4 761.518 1951.34C761.518 1956.28 760.791 1960.57 759.338 1964.2C757.884 1967.76 755.777 1970.7 753.016 1973.03C750.327 1975.35 747.057 1977.13 743.206 1978.37C739.354 1979.53 735.031 1980.19 730.235 1980.33V2001.04H723.041V1980.33C718.317 1980.19 714.03 1979.53 710.179 1978.37C706.327 1977.13 703.021 1975.35 700.26 1973.03C697.571 1970.63 695.464 1967.65 693.938 1964.09C692.484 1960.46 691.758 1956.21 691.758 1951.34C691.758 1946.32 692.484 1941.96 693.938 1938.26C695.391 1934.55 697.462 1931.5 700.151 1929.1C702.839 1926.63 706.109 1924.78 709.961 1923.54C713.885 1922.23 718.245 1921.54 723.041 1921.47V1903.7ZM730.235 1974.34C733.941 1974.34 737.247 1973.86 740.154 1972.92C743.133 1971.97 745.676 1970.56 747.784 1968.67C749.891 1966.78 751.49 1964.38 752.58 1961.47C753.743 1958.57 754.324 1955.08 754.324 1951.01C754.324 1943.09 752.253 1937.24 748.111 1933.46C744.042 1929.61 738.083 1927.68 730.235 1927.68V1974.34ZM723.041 1927.68C715.193 1927.68 709.198 1929.61 705.056 1933.46C700.986 1937.24 698.952 1943.09 698.952 1951.01C698.952 1955.01 699.497 1958.49 700.587 1961.47C701.749 1964.38 703.384 1966.78 705.492 1968.67C707.599 1970.56 710.106 1971.97 713.013 1972.92C715.992 1973.86 719.335 1974.34 723.041 1974.34V1927.68Z" fill="black"/>
<path d="M649.272 1979.57H642.187V1957.33H626.709L611.994 1979.57H603.492L619.297 1956.35C614.792 1955.55 611.159 1953.77 608.397 1951.01C605.636 1948.18 604.255 1944.4 604.255 1939.67C604.255 1935.97 604.873 1932.99 606.108 1930.74C607.344 1928.48 609.015 1926.67 611.122 1925.29C613.157 1923.98 615.446 1923.14 617.989 1922.78C620.605 1922.34 623.439 1922.12 626.491 1922.12H649.272V1979.57ZM642.187 1928.12H627.799C625.474 1928.12 623.258 1928.23 621.15 1928.45C619.043 1928.66 617.335 1929.17 616.027 1929.97C614.792 1930.77 613.702 1931.93 612.757 1933.46C611.885 1934.91 611.449 1936.8 611.449 1939.13C611.449 1941.16 611.776 1942.94 612.43 1944.47C613.157 1945.92 614.102 1947.09 615.264 1947.96C616.354 1948.76 617.517 1949.41 618.752 1949.92C620.06 1950.36 621.405 1950.68 622.785 1950.9C624.239 1951.12 625.656 1951.26 627.036 1951.34C628.417 1951.34 629.761 1951.34 631.069 1951.34H642.187V1928.12Z" fill="black"/>
<path d="M584.695 1971.28C581.934 1974.63 578.773 1976.95 575.212 1978.26C571.724 1979.57 567.873 1980.22 563.658 1980.22C561.115 1980.22 558.644 1979.93 556.246 1979.35C553.921 1978.7 551.813 1977.68 549.924 1976.3C548.035 1974.92 546.509 1973.17 545.346 1971.07C544.256 1968.89 543.711 1966.45 543.711 1963.76C543.711 1960.49 544.329 1957.77 545.564 1955.59C546.799 1953.41 548.398 1951.66 550.36 1950.36C552.395 1949.05 554.72 1948.14 557.336 1947.63C559.952 1947.05 562.677 1946.76 565.511 1946.76H584.368C584.368 1944.14 584.077 1941.67 583.496 1939.35C582.987 1937.02 582.115 1934.99 580.88 1933.24C579.645 1931.5 578.01 1930.12 575.975 1929.1C574.013 1928.08 571.579 1927.58 568.672 1927.58C567.291 1927.58 565.874 1927.68 564.421 1927.9C563.04 1928.12 561.696 1928.48 560.388 1928.99C559.153 1929.5 557.99 1930.23 556.9 1931.17C555.883 1932.04 555.047 1933.13 554.393 1934.44H546.545C547.199 1932.04 548.289 1930.05 549.815 1928.45C551.341 1926.78 553.121 1925.43 555.156 1924.41C557.263 1923.32 559.48 1922.56 561.805 1922.13C564.203 1921.69 566.565 1921.47 568.89 1921.47C573.105 1921.47 576.665 1922.16 579.572 1923.54C582.479 1924.92 584.804 1926.85 586.548 1929.32C588.365 1931.72 589.636 1934.55 590.363 1937.82C591.162 1941.09 591.562 1944.62 591.562 1948.39V1979.57H585.676L584.695 1971.28ZM569.217 1952.54C567.328 1952.54 565.293 1952.61 563.113 1952.75C561.006 1952.9 559.044 1953.34 557.227 1954.06C555.41 1954.72 553.884 1955.77 552.649 1957.22C551.486 1958.6 550.905 1960.53 550.905 1963C550.905 1964.96 551.268 1966.63 551.995 1968.01C552.794 1969.4 553.812 1970.56 555.047 1971.5C556.355 1972.45 557.808 1973.14 559.407 1973.57C561.078 1974.01 562.786 1974.23 564.53 1974.23C567.364 1974.23 569.98 1973.86 572.378 1973.14C574.849 1972.41 576.956 1971.32 578.7 1969.87C580.517 1968.34 581.897 1966.49 582.842 1964.31C583.859 1962.06 584.368 1959.44 584.368 1956.46V1952.54H569.217Z" fill="black"/>
<path d="M490.531 1979.57V1922.12H497.725V1947.85H510.042L527.809 1922.12H535.766L516.473 1949.7L537.619 1979.57H529.335L510.805 1953.84H497.725V1979.57H490.531Z" fill="black"/>
<path d="M454.493 1980.22C449.988 1980.22 446.064 1979.5 442.721 1978.04C439.379 1976.59 436.581 1974.55 434.328 1971.94C432.076 1969.32 430.368 1966.23 429.205 1962.67C428.115 1959.11 427.57 1955.23 427.57 1951.01C427.57 1946.65 428.152 1942.69 429.314 1939.13C430.477 1935.5 432.221 1932.37 434.546 1929.76C436.872 1927.14 439.742 1925.11 443.157 1923.65C446.573 1922.2 450.533 1921.47 455.038 1921.47C460.27 1921.47 464.848 1922.74 468.772 1925.29C472.769 1927.83 475.458 1931.72 476.838 1936.95H469.535C468.518 1933.75 466.592 1931.39 463.758 1929.86C460.997 1928.34 457.945 1927.58 454.602 1927.58C451.187 1927.58 448.208 1928.19 445.664 1929.43C443.194 1930.66 441.123 1932.37 439.451 1934.55C437.853 1936.66 436.654 1939.13 435.854 1941.96C435.055 1944.8 434.655 1947.81 434.655 1951.01C434.655 1954.14 435.055 1957.11 435.854 1959.95C436.654 1962.71 437.853 1965.14 439.451 1967.25C441.123 1969.36 443.23 1971.03 445.773 1972.27C448.389 1973.5 451.441 1974.12 454.929 1974.12C458.417 1974.12 461.542 1973.46 464.303 1972.16C467.065 1970.85 469.063 1968.41 470.298 1964.85H477.71C476.911 1967.54 475.748 1969.87 474.222 1971.83C472.696 1973.72 470.88 1975.32 468.772 1976.63C466.738 1977.86 464.485 1978.77 462.014 1979.35C459.544 1979.93 457.037 1980.22 454.493 1980.22Z" fill="black"/>
<path d="M369.46 2001.04H362.266V1922.13H369.46V1931.94C371.204 1929.25 373.384 1927.03 376 1925.29C378.18 1923.91 380.432 1922.93 382.758 1922.34C385.156 1921.76 387.735 1921.47 390.497 1921.47C395.002 1921.47 398.853 1922.31 402.051 1923.98C405.248 1925.65 407.864 1927.9 409.899 1930.74C411.933 1933.57 413.387 1936.88 414.259 1940.66C415.131 1944.36 415.53 1948.25 415.458 1952.32C415.312 1957.26 414.44 1961.73 412.842 1965.73C411.316 1969.72 408.918 1972.96 405.648 1975.43C403.686 1976.95 401.324 1978.15 398.563 1979.02C395.874 1979.82 392.895 1980.22 389.625 1980.22C387.735 1980.22 385.846 1980.08 383.957 1979.79C382.067 1979.57 380.287 1979.13 378.616 1978.48C376.944 1977.75 375.273 1976.84 373.602 1975.75C372.003 1974.59 370.622 1973.1 369.46 1971.28V2001.04ZM389.189 1974.12C392.604 1974.12 395.511 1973.5 397.909 1972.27C400.307 1971.03 402.269 1969.36 403.795 1967.25C405.321 1965.07 406.447 1962.6 407.174 1959.84C407.9 1957.01 408.264 1954.06 408.264 1951.01C408.264 1947.89 407.9 1944.91 407.174 1942.07C406.52 1939.17 405.43 1936.66 403.904 1934.55C402.378 1932.44 400.379 1930.77 397.909 1929.54C395.511 1928.23 392.531 1927.58 388.971 1927.58C385.773 1927.58 382.867 1928.3 380.251 1929.76C377.707 1931.14 375.6 1932.95 373.929 1935.21C372.257 1937.31 371.058 1939.75 370.332 1942.51C369.605 1945.2 369.242 1948.03 369.242 1951.01C369.242 1954.57 369.787 1958.13 370.877 1961.69C372.039 1965.25 374.11 1968.16 377.09 1970.41C380.432 1972.88 384.465 1974.12 389.189 1974.12Z" fill="black"/>
<path d="M321.547 1921.47C326.053 1921.47 329.977 1922.2 333.319 1923.65C336.735 1925.11 339.569 1927.14 341.821 1929.76C344.147 1932.37 345.891 1935.5 347.053 1939.13C348.216 1942.69 348.797 1946.61 348.797 1950.9C348.797 1955.19 348.216 1959.15 347.053 1962.78C345.891 1966.34 344.147 1969.43 341.821 1972.05C339.569 1974.59 336.735 1976.59 333.319 1978.04C329.977 1979.5 326.053 1980.22 321.547 1980.22C317.042 1980.22 313.082 1979.5 309.666 1978.04C306.324 1976.59 303.49 1974.59 301.164 1972.05C298.912 1969.43 297.204 1966.34 296.041 1962.78C294.951 1959.15 294.406 1955.19 294.406 1950.9C294.406 1946.61 294.951 1942.69 296.041 1939.13C297.204 1935.5 298.912 1932.37 301.164 1929.76C303.49 1927.14 306.324 1925.11 309.666 1923.65C313.082 1922.2 317.042 1921.47 321.547 1921.47ZM321.547 1974.12C325.035 1974.12 328.051 1973.54 330.594 1972.37C333.138 1971.14 335.209 1969.47 336.807 1967.36C338.479 1965.25 339.678 1962.78 340.404 1959.95C341.204 1957.11 341.603 1954.1 341.603 1950.9C341.603 1947.7 341.204 1944.69 340.404 1941.85C339.678 1939.02 338.479 1936.55 336.807 1934.44C335.209 1932.34 333.138 1930.66 330.594 1929.43C328.051 1928.19 325.035 1927.58 321.547 1927.58C318.059 1927.58 315.044 1928.19 312.5 1929.43C309.957 1930.66 307.85 1932.34 306.178 1934.44C304.58 1936.55 303.381 1939.02 302.581 1941.85C301.855 1944.69 301.491 1947.7 301.491 1950.9C301.491 1954.1 301.855 1957.11 302.581 1959.95C303.381 1962.78 304.58 1965.25 306.178 1967.36C307.85 1969.47 309.957 1971.14 312.5 1972.37C315.044 1973.54 318.059 1974.12 321.547 1974.12Z" fill="black"/>
<path d="M220.695 1922.12H232.14L251.106 1953.3L269.636 1922.12H280.863V1979.57H273.669V1928.77L252.305 1964.96H249.471L227.889 1928.88V1979.57H220.695V1922.12Z" fill="black"/>
<path d="M860.209 2318.02H833.477L806.073 2233.39C798.013 2208.76 789.102 2177.59 779.34 2139.89H772.086L794.386 2318.02H766.713L672.68 2030.54H699.278L726.547 2114.23C731.473 2129.55 736.085 2144.59 740.384 2159.37C744.682 2174.05 748.802 2189.55 752.742 2205.85H759.996L737.966 2030.54H766.041L860.209 2318.02Z" fill="black"/>
<path d="M653.166 2318.02L559.133 2030.54H603.463C615.015 2030.54 625.046 2032.96 633.553 2037.8C642.151 2042.54 649.763 2050.11 656.39 2060.5C663.107 2070.8 669.331 2084.5 675.062 2101.6L684.466 2129.55C689.57 2145.49 691.72 2159.1 690.914 2170.38C690.108 2181.67 686.57 2190.26 680.301 2196.17C674.033 2202.09 665.39 2205.04 654.375 2205.04H644.3L681.242 2318.02H653.166ZM644.031 2162.73C648.778 2162.73 652.494 2161.52 655.181 2159.1C657.868 2156.59 659.39 2152.92 659.748 2148.08C660.107 2143.16 659.166 2137.11 656.927 2129.95L649.002 2105.63C646.226 2097.48 643.315 2091.04 640.27 2086.29C637.225 2081.54 633.822 2078.14 630.061 2076.08C626.389 2073.93 622.046 2072.86 617.03 2072.86H601.045L630.464 2162.73H644.031Z" fill="black"/>
<path d="M517.994 2318.02L423.961 2030.54H461.44L494.889 2106.71C499.814 2118.17 504.561 2129.14 509.128 2139.62C513.785 2150.01 518.487 2160.58 523.233 2171.32H530.487C528.069 2160.67 525.696 2150.14 523.368 2139.75C521.039 2129.28 518.621 2118.26 516.114 2106.71L499.456 2030.54H535.861L629.894 2318.02H604.505L573.743 2221.7C563.981 2190.44 554.399 2158.56 544.995 2126.05H537.741L579.116 2318.02H568.907L484.68 2126.05H477.291C489.381 2159.73 500.71 2191.61 511.278 2221.7L543.518 2318.02H517.994Z" fill="black"/>
<path d="M446.457 2245.61H410.724L425.77 2318.02H397.828L342.617 2030.54H374.992L507.847 2318.02H478.831L446.457 2245.61ZM395.679 2172.94L402.664 2207.46H429.397L413.68 2172.94C406.784 2158.16 398.948 2139.49 390.171 2116.92H382.783C387.708 2137.61 392.007 2156.28 395.679 2172.94Z" fill="black"/>
<path d="M268.935 2241.04L268.129 2238.89L294.861 2234.86L298.488 2245.34C301.264 2253.31 304.13 2259.8 307.086 2264.82C310.041 2269.83 313.086 2273.46 316.22 2275.7C319.444 2277.94 322.847 2279.06 326.43 2279.06C330.191 2279.06 333.191 2277.8 335.43 2275.3C337.669 2272.7 338.878 2268.89 339.057 2263.88C339.236 2258.86 338.206 2252.73 335.967 2245.48L327.773 2220.22C324.997 2212.16 322.131 2205.85 319.176 2201.28C316.22 2196.62 313.041 2193.31 309.638 2191.34C306.324 2189.37 302.518 2188.38 298.22 2188.38H282.771L268.935 2146.07H281.159C285.01 2146.07 288.145 2144.95 290.563 2142.71C292.981 2140.38 294.369 2136.93 294.727 2132.37C295.085 2127.71 294.19 2122.07 292.04 2115.44L287.339 2101.47C284.741 2093.86 282.1 2087.68 279.413 2082.93C276.726 2078.19 273.995 2074.78 271.219 2072.72C268.442 2070.57 265.532 2069.5 262.487 2069.5C259.173 2069.5 256.487 2070.75 254.427 2073.26C252.457 2075.77 251.427 2079.57 251.337 2084.68C251.248 2089.69 252.278 2095.83 254.427 2103.08L255.905 2107.65L226.486 2103.62C222.008 2087.77 220.127 2074.07 220.844 2062.51C221.56 2050.96 224.694 2042.18 230.247 2036.18C235.71 2030.18 243.143 2027.18 252.546 2027.18C260.785 2027.18 268.532 2029.65 275.786 2034.57C283.129 2039.41 289.891 2046.89 296.07 2057.01C302.25 2067.13 307.936 2079.89 313.131 2095.29L314.474 2099.59C318.056 2111.23 319.982 2121.13 320.25 2129.28C320.519 2137.43 319.579 2144.01 317.429 2149.02C315.28 2153.95 312.459 2158.2 308.966 2161.79L311.384 2169.17C318.011 2171.32 323.922 2174.5 329.116 2178.71C334.31 2182.83 339.236 2188.88 343.893 2196.85C348.639 2204.82 353.207 2215.3 357.595 2228.28L361.222 2239.03C366.864 2256.58 369.461 2271.54 369.013 2283.89C368.565 2296.25 365.386 2305.61 359.476 2311.97C353.565 2318.24 345.46 2321.37 335.161 2321.37C326.116 2321.37 317.922 2318.82 310.578 2313.72C303.324 2308.61 296.339 2300.24 289.622 2288.6C282.906 2276.86 276.01 2261.01 268.935 2241.04Z" fill="black"/>
<path d="M142.695 1872.2C142.695 1889.6 128.592 1903.7 111.195 1903.7C93.7983 1903.7 79.6953 1889.6 79.6953 1872.2C79.6953 1854.81 93.7983 1840.7 111.195 1840.7C128.592 1840.7 142.695 1854.81 142.695 1872.2Z" fill="black"/>
<path d="M4781.48 854.8H4774.39V832.564H4758.91L4744.2 854.8H4735.7L4751.5 831.583C4747 830.784 4743.36 829.004 4740.6 826.242C4737.84 823.408 4736.46 819.63 4736.46 814.906C4736.46 811.2 4737.08 808.221 4738.31 805.968C4739.55 803.716 4741.22 801.899 4743.33 800.518C4745.36 799.21 4747.65 798.375 4750.19 798.011C4752.81 797.575 4755.64 797.357 4758.69 797.357H4781.48V854.8ZM4774.39 803.352H4760C4757.68 803.352 4755.46 803.461 4753.35 803.679C4751.25 803.897 4749.54 804.406 4748.23 805.205C4747 806.005 4745.9 807.167 4744.96 808.693C4744.09 810.147 4743.65 812.036 4743.65 814.361C4743.65 816.396 4743.98 818.176 4744.63 819.702C4745.36 821.156 4746.3 822.318 4747.47 823.19C4748.56 823.99 4749.72 824.644 4750.96 825.152C4752.26 825.588 4753.61 825.915 4754.99 826.133C4756.44 826.351 4757.86 826.497 4759.24 826.569C4760.62 826.569 4761.96 826.569 4763.27 826.569H4774.39V803.352Z" fill="black"/>
<path d="M4703.26 855.455C4698.75 855.455 4694.83 854.728 4691.49 853.275C4688.14 851.822 4685.35 849.787 4683.09 847.171C4680.84 844.555 4679.13 841.467 4677.97 837.906C4676.88 834.345 4676.34 830.458 4676.34 826.243C4676.34 821.883 4676.92 817.923 4678.08 814.362C4679.24 810.729 4680.99 807.604 4683.31 804.988C4685.64 802.372 4688.51 800.337 4691.92 798.884C4695.34 797.431 4699.3 796.704 4703.8 796.704C4709.04 796.704 4713.61 797.976 4717.54 800.519C4721.53 803.062 4724.22 806.95 4725.6 812.182H4718.3C4717.28 808.985 4715.36 806.623 4712.52 805.097C4709.76 803.571 4706.71 802.808 4703.37 802.808C4699.95 802.808 4696.97 803.426 4694.43 804.661C4691.96 805.896 4689.89 807.604 4688.22 809.784C4686.62 811.891 4685.42 814.362 4684.62 817.196C4683.82 820.03 4683.42 823.046 4683.42 826.243C4683.42 829.368 4683.82 832.347 4684.62 835.181C4685.42 837.942 4686.62 840.377 4688.22 842.484C4689.89 844.591 4692 846.263 4694.54 847.498C4697.15 848.733 4700.21 849.351 4703.69 849.351C4707.18 849.351 4710.31 848.697 4713.07 847.389C4715.83 846.081 4717.83 843.647 4719.06 840.086H4726.48C4725.68 842.775 4724.51 845.1 4722.99 847.062C4721.46 848.951 4719.65 850.55 4717.54 851.858C4715.5 853.093 4713.25 854.002 4710.78 854.583C4708.31 855.164 4705.8 855.455 4703.26 855.455Z" fill="black"/>
<path d="M4669.38 797.357V803.352H4648.78V854.8H4641.59V803.352H4620.98V797.357H4669.38Z" fill="black"/>
<path d="M4569.52 828.423C4569.67 831.475 4570.18 834.273 4571.05 836.816C4571.99 839.359 4573.3 841.576 4574.97 843.465C4576.64 845.282 4578.68 846.735 4581.08 847.825C4583.55 848.842 4586.42 849.351 4589.69 849.351C4591.21 849.351 4592.74 849.206 4594.27 848.915C4595.86 848.624 4597.35 848.188 4598.73 847.607C4600.19 846.953 4601.5 846.117 4602.66 845.1C4603.82 844.083 4604.73 842.811 4605.38 841.285H4612.9C4612.11 843.828 4610.87 846.008 4609.2 847.825C4607.6 849.642 4605.75 851.131 4603.64 852.294C4601.53 853.384 4599.24 854.183 4596.77 854.692C4594.3 855.201 4591.83 855.455 4589.36 855.455C4584.86 855.455 4580.89 854.728 4577.48 853.275C4574.14 851.822 4571.34 849.823 4569.09 847.28C4566.83 844.664 4565.16 841.576 4564.07 838.015C4562.98 834.382 4562.44 830.421 4562.44 826.134C4562.44 821.774 4563.02 817.777 4564.18 814.144C4565.34 810.511 4567.05 807.422 4569.3 804.879C4571.63 802.263 4574.46 800.265 4577.81 798.884C4581.22 797.431 4585.11 796.704 4589.47 796.704C4594.05 796.704 4597.9 797.612 4601.02 799.429C4604.22 801.246 4606.8 803.644 4608.76 806.623C4610.72 809.53 4612.11 812.909 4612.9 816.76C4613.78 820.539 4614.14 824.426 4613.99 828.423H4569.52ZM4606.69 822.428C4606.62 819.812 4606.18 817.305 4605.38 814.907C4604.66 812.509 4603.53 810.438 4602 808.694C4600.55 806.877 4598.7 805.46 4596.45 804.443C4594.19 803.353 4591.58 802.808 4588.6 802.808C4585.62 802.808 4582.97 803.353 4580.64 804.443C4578.39 805.533 4576.46 806.986 4574.86 808.803C4573.26 810.62 4572.03 812.727 4571.16 815.125C4570.29 817.45 4569.78 819.885 4569.63 822.428H4606.69Z" fill="black"/>
<path d="M4546.65 797.357H4554.93L4535.75 851.748C4535.17 853.42 4534.44 855.345 4533.57 857.525C4532.7 859.705 4531.72 861.885 4530.63 864.065C4529.61 866.245 4528.48 868.316 4527.25 870.278C4526.09 872.24 4524.89 873.803 4523.65 874.965C4521.33 877.291 4518.82 878.78 4516.13 879.434C4513.51 880.088 4510.35 880.415 4506.65 880.415V873.548C4507.96 873.548 4509.19 873.512 4510.35 873.439C4511.52 873.367 4512.57 873.149 4513.51 872.785C4515.11 872.277 4516.49 871.477 4517.66 870.387C4518.89 869.37 4519.98 868.207 4520.93 866.899C4521.87 865.591 4522.71 864.174 4523.43 862.648C4524.16 861.195 4524.81 859.742 4525.4 858.288L4499.45 797.357H4508.06L4529.54 849.132L4546.65 797.357Z" fill="black"/>
<path d="M4442.31 854.8V797.357H4449.51V823.626H4481.99V797.357H4489.18V854.8H4481.99V829.621H4449.51V854.8H4442.31Z" fill="black"/>
<path d="M4426.57 797.357V854.8H4419.38V803.352H4394.53C4394.45 805.387 4394.38 807.458 4394.31 809.565L4393.76 821.664C4393.69 823.699 4393.62 825.77 4393.55 827.877C4393.4 829.767 4393.22 831.765 4393 833.872C4392.86 835.98 4392.56 838.087 4392.13 840.194C4391.69 842.229 4391.08 844.191 4390.28 846.08C4389.48 847.97 4388.39 849.605 4387.01 850.985C4385.26 852.729 4383.45 853.892 4381.56 854.473C4379.67 854.982 4377.52 855.236 4375.12 855.236V848.478C4377.31 848.333 4379.09 847.715 4380.47 846.625C4381.92 845.463 4383.05 843.937 4383.85 842.047C4384.79 839.722 4385.41 837.179 4385.7 834.417C4386.06 831.583 4386.32 829.185 4386.46 827.223C4386.82 822.209 4387.04 817.232 4387.11 812.29C4387.26 807.349 4387.41 802.371 4387.55 797.357H4426.57Z" fill="black"/>
<path d="M4340.18 796.704C4344.69 796.704 4348.61 797.431 4351.95 798.884C4355.37 800.337 4358.2 802.372 4360.45 804.988C4362.78 807.604 4364.52 810.729 4365.69 814.362C4366.85 817.923 4367.43 821.847 4367.43 826.134C4367.43 830.421 4366.85 834.382 4365.69 838.015C4364.52 841.576 4362.78 844.664 4360.45 847.28C4358.2 849.823 4355.37 851.822 4351.95 853.275C4348.61 854.728 4344.69 855.455 4340.18 855.455C4335.67 855.455 4331.71 854.728 4328.3 853.275C4324.96 851.822 4322.12 849.823 4319.8 847.28C4317.54 844.664 4315.84 841.576 4314.67 838.015C4313.58 834.382 4313.04 830.421 4313.04 826.134C4313.04 821.847 4313.58 817.923 4314.67 814.362C4315.84 810.729 4317.54 807.604 4319.8 804.988C4322.12 802.372 4324.96 800.337 4328.3 798.884C4331.71 797.431 4335.67 796.704 4340.18 796.704ZM4340.18 849.351C4343.67 849.351 4346.68 848.77 4349.23 847.607C4351.77 846.372 4353.84 844.7 4355.44 842.593C4357.11 840.486 4358.31 838.015 4359.04 835.181C4359.84 832.347 4360.24 829.331 4360.24 826.134C4360.24 822.937 4359.84 819.921 4359.04 817.087C4358.31 814.253 4357.11 811.782 4355.44 809.675C4353.84 807.568 4351.77 805.896 4349.23 804.661C4346.68 803.426 4343.67 802.808 4340.18 802.808C4336.69 802.808 4333.68 803.426 4331.13 804.661C4328.59 805.896 4326.48 807.568 4324.81 809.675C4323.21 811.782 4322.01 814.253 4321.21 817.087C4320.49 819.921 4320.12 822.937 4320.12 826.134C4320.12 829.331 4320.49 832.347 4321.21 835.181C4322.01 838.015 4323.21 840.486 4324.81 842.593C4326.48 844.7 4328.59 846.372 4331.13 847.607C4333.68 848.77 4336.69 849.351 4340.18 849.351Z" fill="black"/>
<path d="M4255.29 797.357H4277.31C4279.49 797.357 4281.78 797.503 4284.17 797.793C4286.64 798.084 4288.86 798.702 4290.82 799.646C4292.86 800.591 4294.53 801.972 4295.84 803.788C4297.22 805.532 4297.94 807.894 4298.02 810.873C4298.09 813.635 4297.47 816.178 4296.16 818.503C4294.93 820.829 4292.93 822.682 4290.17 824.062C4293.66 824.789 4296.42 826.315 4298.45 828.64C4300.49 830.893 4301.51 834.09 4301.51 838.232C4301.51 841.43 4300.85 844.155 4299.54 846.407C4298.31 848.587 4296.64 850.331 4294.53 851.639C4292.79 852.802 4290.75 853.638 4288.43 854.146C4286.1 854.582 4283.74 854.8 4281.34 854.8H4255.29V797.357ZM4262.48 803.352V822.427H4277.09C4278.54 822.427 4280.25 822.282 4282.21 821.991C4284.17 821.628 4285.85 820.974 4287.23 820.029C4288.39 819.303 4289.33 818.358 4290.06 817.195C4290.79 815.96 4291.15 814.434 4291.15 812.617C4291.15 810.583 4290.71 808.948 4289.84 807.712C4289.04 806.477 4287.95 805.532 4286.57 804.878C4285.19 804.224 4283.67 803.825 4281.99 803.679C4280.32 803.461 4278.65 803.352 4276.98 803.352H4262.48ZM4262.48 848.805H4279.49C4281.16 848.805 4282.87 848.696 4284.61 848.478C4286.35 848.188 4287.92 847.715 4289.3 847.061C4290.75 846.335 4291.95 845.354 4292.89 844.118C4293.84 842.81 4294.31 841.103 4294.31 838.995C4294.31 836.525 4293.8 834.599 4292.79 833.218C4291.84 831.838 4290.57 830.784 4288.97 830.057C4287.37 829.331 4285.59 828.895 4283.63 828.749C4281.74 828.531 4279.85 828.422 4277.96 828.422H4262.48V848.805Z" fill="black"/>
<path d="M4203.51 846.517C4200.75 849.86 4197.59 852.185 4194.02 853.493C4190.54 854.801 4186.69 855.455 4182.47 855.455C4179.93 855.455 4177.46 855.164 4175.06 854.583C4172.73 853.929 4170.63 852.912 4168.74 851.531C4166.85 850.15 4165.32 848.406 4164.16 846.299C4163.07 844.119 4162.52 841.685 4162.52 838.996C4162.52 835.726 4163.14 833.001 4164.38 830.821C4165.61 828.641 4167.21 826.897 4169.17 825.589C4171.21 824.281 4173.53 823.373 4176.15 822.864C4178.76 822.283 4181.49 821.992 4184.32 821.992H4203.18C4203.18 819.376 4202.89 816.905 4202.31 814.58C4201.8 812.255 4200.93 810.22 4199.69 808.476C4198.46 806.732 4196.82 805.351 4194.79 804.334C4192.83 803.317 4190.39 802.808 4187.48 802.808C4186.1 802.808 4184.69 802.917 4183.23 803.135C4181.85 803.353 4180.51 803.716 4179.2 804.225C4177.97 804.734 4176.8 805.46 4175.71 806.405C4174.7 807.277 4173.86 808.367 4173.21 809.675H4165.36C4166.01 807.277 4167.1 805.279 4168.63 803.68C4170.15 802.009 4171.93 800.664 4173.97 799.647C4176.08 798.557 4178.29 797.794 4180.62 797.358C4183.02 796.922 4185.38 796.704 4187.7 796.704C4191.92 796.704 4195.48 797.394 4198.38 798.775C4201.29 800.156 4203.62 802.081 4205.36 804.552C4207.18 806.95 4208.45 809.784 4209.18 813.054C4209.97 816.324 4210.37 819.848 4210.37 823.627V854.801H4204.49L4203.51 846.517ZM4188.03 827.769C4186.14 827.769 4184.11 827.842 4181.93 827.987C4179.82 828.132 4177.86 828.568 4176.04 829.295C4174.22 829.949 4172.7 831.003 4171.46 832.456C4170.3 833.837 4169.72 835.762 4169.72 838.233C4169.72 840.195 4170.08 841.866 4170.81 843.247C4171.61 844.628 4172.62 845.79 4173.86 846.735C4175.17 847.68 4176.62 848.37 4178.22 848.806C4179.89 849.242 4181.6 849.46 4183.34 849.46C4186.18 849.46 4188.79 849.097 4191.19 848.37C4193.66 847.643 4195.77 846.553 4197.51 845.1C4199.33 843.574 4200.71 841.721 4201.65 839.541C4202.67 837.288 4203.18 834.672 4203.18 831.693V827.769H4188.03Z" fill="black"/>
<path d="M4077.09 797.357H4084.29V848.805H4109.25V797.357H4116.44V848.805H4141.62V797.357H4148.82V854.8H4077.09V797.357Z" fill="black"/>
<path d="M4059.13 797.357H4067.41L4048.23 851.748C4047.65 853.42 4046.92 855.345 4046.05 857.525C4045.17 859.705 4044.19 861.885 4043.1 864.065C4042.09 866.245 4040.96 868.316 4039.72 870.278C4038.56 872.24 4037.36 873.803 4036.13 874.965C4033.8 877.291 4031.3 878.78 4028.61 879.434C4025.99 880.088 4022.83 880.415 4019.12 880.415V873.548C4020.43 873.548 4021.67 873.512 4022.83 873.439C4023.99 873.367 4025.05 873.149 4025.99 872.785C4027.59 872.277 4028.97 871.477 4030.13 870.387C4031.37 869.37 4032.46 868.207 4033.4 866.899C4034.35 865.591 4035.18 864.174 4035.91 862.648C4036.64 861.195 4037.29 859.742 4037.87 858.288L4011.93 797.357H4020.54L4042.01 849.132L4059.13 797.357Z" fill="black"/>
<path d="M3998.8 797.357V848.805H4006.65V873.112H3999.78V854.8H3953.45V873.112H3946.7V848.914C3948 848.842 3949.13 848.478 3950.07 847.824C3951.09 847.098 3951.96 846.262 3952.69 845.317C3953.49 844.3 3954.14 843.21 3954.65 842.047C3955.16 840.885 3955.6 839.758 3955.96 838.668C3956.98 835.398 3957.67 831.874 3958.03 828.095C3958.39 824.244 3958.61 820.792 3958.69 817.74C3958.76 814.325 3958.83 810.91 3958.9 807.494C3958.98 804.079 3958.98 800.7 3958.9 797.357H3998.8ZM3991.6 803.352H3965.77C3965.77 804.588 3965.73 805.896 3965.66 807.276L3965.55 815.778C3965.55 817.086 3965.52 818.394 3965.44 819.702C3965.37 822.972 3965.19 826.279 3964.9 829.621C3964.68 832.891 3964.1 836.125 3963.15 839.322C3962.57 841.43 3961.81 843.319 3960.87 844.99C3959.92 846.589 3959.01 847.861 3958.14 848.805H3991.6V803.352Z" fill="black"/>
<path d="M3868.7 765.204C3868.7 782.601 3854.59 796.704 3837.2 796.704C3819.8 796.704 3805.7 782.601 3805.7 765.204C3805.7 747.807 3819.8 733.704 3837.2 733.704C3854.59 733.704 3868.7 747.807 3868.7 765.204Z" fill="black"/>
<path d="M4303.34 1117.48H4267.61L4282.65 1189.89H4254.71L4199.5 902.416H4231.87L4364.73 1189.89H4335.71L4303.34 1117.48ZM4252.56 1044.81L4259.55 1079.33H4286.28L4270.56 1044.81C4263.67 1030.03 4255.83 1011.36 4247.05 988.792H4239.67C4244.59 1009.48 4248.89 1028.15 4252.56 1044.81Z" fill="black"/>
<path d="M4138.14 1020.76C4142.26 1020.76 4145.53 1019.55 4147.95 1017.14C4150.37 1014.72 4151.71 1011.18 4151.98 1006.52C4152.34 1001.87 4151.49 996.225 4149.43 989.598L4144.86 975.225C4142.35 967.792 4139.71 961.881 4136.93 957.493C4134.16 953.015 4131.02 949.791 4127.53 947.821C4124.13 945.761 4120.1 944.731 4115.44 944.731H4099.19L4124.04 1020.76H4138.14ZM4151.31 1189.89L4057.27 902.416H4101.87C4113.07 902.416 4122.83 904.789 4131.16 909.536C4139.49 914.282 4146.83 921.626 4153.19 931.566C4159.64 941.417 4165.59 954.269 4171.05 970.12L4173.2 976.971C4176.52 987.539 4178.22 996.628 4178.31 1004.24C4178.49 1011.85 4177.5 1018.03 4175.35 1022.78C4173.29 1027.53 4170.61 1031.69 4167.29 1035.27C4166.93 1035.54 4166.62 1035.81 4166.35 1036.08C4166.08 1036.35 4165.77 1036.61 4165.41 1036.88L4167.83 1044.27C4168.37 1044.45 4168.86 1044.63 4169.31 1044.81C4169.76 1044.9 4170.25 1045.08 4170.79 1045.35C4177.14 1047.68 4182.83 1050.94 4187.85 1055.15C4192.86 1059.27 4197.74 1065.41 4202.49 1073.56C4207.32 1081.71 4212.11 1092.54 4216.86 1106.07L4220.89 1118.29C4225.46 1132.89 4227.29 1145.6 4226.4 1156.44C4225.59 1167.19 4222.15 1175.47 4216.06 1181.29C4209.97 1187.02 4201.59 1189.89 4190.94 1189.89H4151.31ZM4179.92 1147.57C4184.31 1147.57 4187.8 1146.37 4190.4 1143.95C4193.08 1141.53 4194.61 1137.99 4194.97 1133.34C4195.32 1128.59 4194.47 1122.9 4192.41 1116.27L4185.02 1093.57C4182.34 1085.69 4179.52 1079.42 4176.56 1074.77C4173.61 1070.11 4170.34 1066.8 4166.76 1064.83C4163.17 1062.77 4158.92 1061.74 4153.99 1061.74H4137.47L4165.55 1147.57H4179.92Z" fill="black"/>
<path d="M4031.86 1223.47L4007.01 1147.57H4023.27C4021.03 1138.53 4018.52 1129.13 4015.74 1119.36C4012.97 1109.51 4009.43 1097.96 4005.13 1084.71L3946.7 902.416H4027.3L4107.49 1147.57H4125.63L4150.48 1223.47H4122.67L4111.66 1189.89H4048.65L4059.67 1223.47H4031.86ZM4050.8 1147.57H4079.82L4013.32 944.194H3987.4L4032.4 1084.71C4036.61 1097.87 4040.1 1109.29 4042.88 1118.96C4045.74 1128.63 4048.39 1138.17 4050.8 1147.57Z" fill="black"/>
</svg>
