<svg width="1845" height="1278" viewBox="0 0 1845 1278" fill="none" xmlns="http://www.w3.org/2000/svg">
<g filter="url(#filter0_f_127_2487)">
<path d="M1139.38 898.008L1444.51 268.773H1562.08L1501.64 449.189C1492.62 475.851 1484 501.109 1475.78 524.964C1467.76 548.819 1459.14 573.576 1449.92 599.235H1470.97C1488.01 573.576 1504.35 548.719 1519.98 524.663C1535.62 500.407 1551.96 475.249 1569 449.189L1686.27 268.773H1809.85L1480.28 933.629L1404.87 921.28L1522.69 686.737C1561.78 608.356 1602.47 530.577 1644.77 453.399H1623.72L1331.73 917.006L1294.16 912.257L1447.52 453.399H1426.47C1388.38 539.197 1352.5 616.976 1318.82 686.737L1209.67 905.607L1139.38 898.008Z" fill="white"/>
<path d="M913.078 893.257L1117.62 134.556H965.46L1000.8 3.60156H1431.91L1396.57 134.556H1244.41L1039.87 893.257H913.078Z" fill="white"/>
<path d="M955.658 893.181H852.611L772.384 658.65C748.375 589.265 722.345 501.108 694.295 394.18H669.336L703.923 893.181L596.533 900.381L329.172 130.422H432.219L514.23 368.517C529.205 412.239 542.636 454.654 554.522 495.762C566.645 536.87 578.649 581.424 590.535 629.423H615.494L580.907 130.422H691.086L955.658 893.181Z" fill="white"/>
<path d="M356.443 931.602L55 433.602H183.616C214.597 433.602 241.476 437.402 264.251 445.004C287.027 452.606 307.793 465.017 326.55 482.238C345.306 499.303 363.728 522.807 381.814 552.749L409.949 599.059C425.356 624.657 432.306 647.928 430.799 668.872C429.459 689.66 420.499 706.028 403.92 717.974C387.341 729.919 365.151 735.892 337.351 735.892H314.492L425.961 921.991L356.443 931.602ZM304.193 662.588C316.585 662.588 326.298 660.029 333.332 654.909C340.533 649.789 344.469 642.886 345.139 634.198C345.976 625.51 343.38 616.046 337.351 605.807L311.729 563.687C303.02 549.103 294.396 537.778 285.855 529.711C277.314 521.488 267.936 515.671 257.72 512.258C247.672 508.689 235.782 506.905 222.049 506.905H176.079L270.029 662.588H304.193Z" fill="white"/>
</g>
<path d="M1827.57 1098.87C1827.57 1092.89 1824.52 1084.98 1814.14 1075.15C1803.77 1065.3 1787.52 1055 1765.04 1044.68C1720.17 1024.09 1654.17 1005.12 1571.26 989.027C1405.71 956.899 1176.28 936.911 922.333 936.911C668.391 936.911 438.954 956.899 273.412 989.027C190.501 1005.12 124.496 1024.09 79.6294 1044.68C57.1462 1055 40.9005 1065.3 30.5223 1075.15C20.1501 1084.98 17.0978 1092.89 17.0978 1098.87C17.0978 1104.85 20.1501 1112.75 30.5223 1122.59C40.9005 1132.44 57.1462 1142.74 79.6294 1153.06C124.496 1173.65 190.501 1192.62 273.412 1208.71C438.954 1240.84 668.391 1260.83 922.333 1260.83V1277.87C412.943 1277.87 0 1197.73 0 1098.87C0 1000.01 412.943 919.863 922.333 919.863C1431.72 919.863 1844.67 1000.01 1844.67 1098.87C1844.67 1197.73 1431.72 1277.87 922.333 1277.87V1260.83C1176.28 1260.83 1405.71 1240.84 1571.26 1208.71C1654.17 1192.62 1720.17 1173.65 1765.04 1153.06C1787.52 1142.74 1803.77 1132.44 1814.14 1122.59C1824.52 1112.75 1827.57 1104.85 1827.57 1098.87Z" fill="white"/>
<path d="M394.278 1087.67H450.244V1106.76H394.278V1163.02H372.641V1028.87H394.278V1087.67ZM483.123 1163.02H461.484V1150.67H461.643V1068.03H461.484V1028.87H483.123V1163.02Z" fill="white"/>
<path d="M769.405 1027.44C778.157 1027.87 785.861 1029.53 792.517 1032.42C800.323 1035.82 806.857 1040.57 812.118 1046.68C817.549 1052.79 821.537 1060.08 824.083 1068.57C826.798 1076.89 828.155 1086.05 828.155 1096.06C828.155 1106.08 826.798 1115.33 824.083 1123.81C821.537 1132.13 817.549 1139.34 812.118 1145.45C806.857 1151.39 800.238 1156.06 792.262 1159.45C785.592 1162.29 777.973 1163.94 769.405 1164.4V1145.22C774.552 1144.75 779.116 1143.56 783.097 1141.63C788.527 1139.09 792.941 1135.61 796.335 1131.19C799.899 1126.61 802.444 1121.35 803.972 1115.41C805.669 1109.47 806.518 1103.02 806.518 1096.06C806.518 1089.28 805.669 1082.91 803.972 1076.97C802.444 1070.86 799.899 1065.6 796.335 1061.19C792.941 1056.61 788.527 1053.04 783.097 1050.5C779.116 1048.57 774.552 1047.37 769.405 1046.9V1027.44ZM758.007 1047.02C753.31 1047.55 749.114 1048.71 745.421 1050.5C740.16 1053.04 735.747 1056.61 732.184 1061.19C728.789 1065.6 726.244 1070.86 724.547 1076.97C723.019 1082.91 722.256 1089.28 722.256 1096.06C722.256 1103.02 723.02 1109.47 724.547 1115.41C726.244 1121.35 728.789 1126.61 732.184 1131.19C735.748 1135.61 740.16 1139.09 745.421 1141.63C749.114 1143.42 753.31 1144.58 758.007 1145.11V1164.34C749.888 1163.79 742.638 1162.17 736.257 1159.45C728.45 1156.06 721.831 1151.39 716.4 1145.45C711.139 1139.34 707.151 1132.13 704.436 1123.81C701.89 1115.33 700.617 1106.08 700.617 1096.06C700.617 1086.05 701.89 1076.89 704.436 1068.57C707.151 1060.08 711.139 1052.79 716.4 1046.68C721.831 1040.57 728.534 1035.82 736.511 1032.42C742.784 1029.75 749.949 1028.13 758.007 1027.56V1047.02Z" fill="white"/>
<path d="M1119.91 1047.95H1080.65L1078.36 1100.65C1078.02 1107.44 1077.26 1115.07 1076.07 1123.56C1074.88 1132.04 1072.42 1139.77 1068.69 1146.72C1065.8 1151.65 1061.9 1155.63 1056.98 1158.69C1052.06 1161.74 1046.37 1163.27 1039.92 1163.27H1032.03V1144.18C1038.82 1144.18 1044.25 1141.29 1048.32 1135.52C1050.7 1132.13 1052.57 1127.21 1053.92 1120.76C1055.28 1114.31 1056.22 1107.44 1056.72 1100.14C1057.57 1087.92 1058.17 1076.04 1058.51 1064.5C1059.02 1052.96 1059.35 1041.08 1059.52 1028.86H1119.91V1047.95ZM1152.7 1163.02H1131.31V1028.86H1152.7V1163.02Z" fill="white"/>
<path d="M1397.23 1080.03H1397.27V1098.87H1397.23V1144.18H1397.27V1163.02H1375.08V1028.86H1397.23V1080.03ZM1426.76 1080.03C1434.39 1080.03 1441.44 1080.62 1447.88 1081.81C1454.33 1082.83 1459.93 1085.03 1464.69 1088.43C1469.27 1091.82 1472.75 1096.15 1475.12 1101.41C1477.67 1106.5 1478.94 1112.87 1478.94 1120.5C1478.77 1128.14 1477.41 1134.5 1474.87 1139.6C1472.32 1144.52 1469.1 1148.68 1465.2 1152.07C1460.61 1155.97 1454.84 1158.77 1447.88 1160.47C1441.1 1162.17 1434.14 1163.02 1427.01 1163.02H1408.67V1144.18H1409.95C1416.4 1144.18 1422.85 1144.09 1429.3 1143.92C1435.75 1143.58 1441.35 1142.23 1446.1 1139.85C1449.33 1138.49 1451.87 1136.2 1453.74 1132.98C1455.78 1129.58 1456.88 1125.68 1457.05 1121.27C1457.05 1116.01 1455.95 1111.85 1453.74 1108.79C1451.7 1105.74 1448.99 1103.53 1445.59 1102.17C1442.37 1100.65 1438.72 1099.71 1434.65 1099.37C1430.57 1099.03 1426.59 1098.87 1422.68 1098.87H1408.67V1080.03H1426.76Z" fill="white"/>
<defs>
<filter id="filter0_f_127_2487" x="51.4" y="0.0015626" width="1762.05" height="937.227" filterUnits="userSpaceOnUse" color-interpolation-filters="sRGB">
<feFlood flood-opacity="0" result="BackgroundImageFix"/>
<feBlend mode="normal" in="SourceGraphic" in2="BackgroundImageFix" result="shape"/>
<feGaussianBlur stdDeviation="1.8" result="effect1_foregroundBlur_127_2487"/>
</filter>
</defs>
</svg>
